<svg id="svg" version="1.1" xmlns="http://www.w3.org/2000/svg" xmlns:xlink="http://www.w3.org/1999/xlink" width="400" height="400" viewBox="0, 0, 400,400"><g id="svgg"><path id="path0" d="M199.449 130.273 C 199.590 130.835,199.525 131.250,199.298 131.250 C 199.080 131.250,198.993 131.602,199.106 132.031 C 199.218 132.461,199.130 132.813,198.910 132.813 C 198.690 132.813,198.603 133.164,198.715 133.594 C 198.834 134.050,198.727 134.375,198.457 134.375 C 198.172 134.375,198.090 134.675,198.242 135.156 C 198.379 135.586,198.319 135.938,198.110 135.938 C 197.901 135.938,197.821 136.289,197.934 136.719 C 198.046 137.148,197.947 137.500,197.714 137.500 C 197.481 137.500,197.391 137.764,197.515 138.086 C 197.639 138.408,197.589 138.672,197.405 138.673 C 197.221 138.673,197.050 139.237,197.025 139.925 C 197.000 140.613,196.790 141.239,196.558 141.316 C 196.327 141.394,196.234 141.709,196.353 142.017 C 196.471 142.326,196.379 142.578,196.148 142.578 C 195.917 142.578,195.829 142.842,195.952 143.164 C 196.076 143.486,195.988 143.750,195.757 143.750 C 195.526 143.750,195.438 144.014,195.562 144.336 C 195.686 144.658,195.630 144.922,195.437 144.922 C 195.245 144.922,195.059 145.315,195.022 145.795 C 194.986 146.275,194.783 146.726,194.571 146.797 C 194.358 146.868,194.281 147.178,194.400 147.486 C 194.518 147.795,194.458 148.047,194.266 148.047 C 194.073 148.047,193.887 148.440,193.850 148.920 C 193.814 149.400,193.600 149.855,193.374 149.930 C 193.149 150.005,193.055 150.214,193.167 150.395 C 193.430 150.821,192.559 152.734,192.102 152.734 C 191.909 152.734,191.859 152.910,191.992 153.125 C 192.125 153.340,192.037 153.516,191.797 153.516 C 191.557 153.516,191.469 153.691,191.602 153.906 C 191.734 154.121,191.646 154.297,191.406 154.297 C 191.166 154.297,191.078 154.473,191.211 154.688 C 191.344 154.902,191.256 155.078,191.016 155.078 C 190.775 155.078,190.688 155.254,190.820 155.469 C 190.953 155.684,190.865 155.859,190.625 155.859 C 190.385 155.859,190.297 156.035,190.430 156.250 C 190.562 156.465,190.475 156.641,190.234 156.641 C 189.994 156.641,189.906 156.816,190.039 157.031 C 190.172 157.246,190.084 157.422,189.844 157.422 C 189.604 157.422,189.512 157.591,189.640 157.798 C 189.768 158.005,189.529 158.518,189.109 158.938 C 188.690 159.357,188.449 159.803,188.574 159.928 C 188.700 160.054,188.587 160.156,188.323 160.156 C 188.060 160.156,187.954 160.333,188.088 160.550 C 188.221 160.766,188.057 161.048,187.722 161.177 C 187.388 161.305,187.207 161.561,187.321 161.745 C 187.435 161.930,187.185 162.424,186.766 162.844 C 186.346 163.263,186.081 163.685,186.177 163.781 C 186.273 163.877,185.836 164.507,185.206 165.181 C 184.577 165.855,184.176 166.412,184.316 166.419 C 184.456 166.426,184.167 166.768,183.674 167.179 C 183.181 167.590,182.796 168.031,182.817 168.158 C 182.838 168.286,182.481 168.867,182.024 169.449 C 181.566 170.031,181.320 170.261,181.477 169.959 C 181.665 169.595,181.607 169.506,181.304 169.693 C 181.052 169.849,180.937 170.122,181.047 170.300 C 181.157 170.478,180.650 171.149,179.920 171.790 C 179.189 172.432,178.384 173.343,178.131 173.816 C 177.878 174.289,177.585 174.590,177.480 174.486 C 177.375 174.381,176.578 175.067,175.709 176.010 C 174.840 176.953,173.985 177.636,173.810 177.528 C 173.635 177.420,173.364 177.537,173.209 177.788 C 173.019 178.096,173.106 178.145,173.475 177.939 C 173.777 177.770,173.408 178.164,172.656 178.815 C 171.904 179.466,171.157 179.918,170.996 179.820 C 170.835 179.722,170.703 179.819,170.703 180.037 C 170.703 180.648,167.144 183.222,166.689 182.941 C 166.467 182.804,166.391 182.862,166.520 183.071 C 166.649 183.280,166.237 183.756,165.604 184.130 C 164.971 184.504,164.453 184.712,164.453 184.592 C 164.453 184.473,164.095 184.733,163.658 185.170 C 163.220 185.608,162.666 185.845,162.425 185.696 C 162.170 185.538,162.097 185.602,162.250 185.849 C 162.494 186.243,161.110 186.971,160.449 186.796 C 160.288 186.754,160.156 186.905,160.156 187.132 C 160.156 187.360,159.980 187.437,159.766 187.305 C 159.551 187.172,159.375 187.260,159.375 187.500 C 159.375 187.740,159.199 187.828,158.984 187.695 C 158.770 187.563,158.594 187.636,158.594 187.858 C 158.594 188.398,156.328 189.547,155.848 189.251 C 155.639 189.122,155.469 189.174,155.469 189.367 C 155.469 189.879,153.531 190.680,153.035 190.374 C 152.769 190.210,152.728 190.299,152.924 190.615 C 153.130 190.949,153.053 191.057,152.695 190.937 C 152.398 190.838,151.911 191.001,151.613 191.300 C 151.315 191.598,150.830 191.749,150.536 191.636 C 150.241 191.523,150.000 191.616,150.000 191.842 C 150.000 192.068,149.782 192.180,149.515 192.091 C 149.249 192.002,148.786 192.173,148.488 192.472 C 148.190 192.770,147.705 192.921,147.411 192.808 C 147.116 192.695,146.875 192.745,146.875 192.919 C 146.875 193.352,143.828 194.235,143.351 193.940 C 143.141 193.810,142.969 193.909,142.969 194.159 C 142.969 194.410,142.705 194.514,142.383 194.390 C 142.061 194.266,141.797 194.347,141.797 194.570 C 141.797 194.797,141.454 194.866,141.016 194.727 C 140.537 194.575,140.234 194.656,140.234 194.937 C 140.234 195.190,139.971 195.295,139.648 195.171 C 139.326 195.048,139.063 195.136,139.063 195.367 C 139.063 195.624,138.671 195.689,138.053 195.535 C 137.329 195.353,137.125 195.412,137.330 195.744 C 137.531 196.069,137.326 196.152,136.647 196.022 C 136.053 195.908,135.677 196.017,135.677 196.302 C 135.677 196.561,135.995 196.685,136.393 196.581 C 136.787 196.478,137.109 196.573,137.109 196.793 C 137.109 197.013,137.461 197.101,137.891 196.988 C 138.347 196.869,138.672 196.976,138.672 197.246 C 138.672 197.531,138.972 197.614,139.453 197.461 C 139.883 197.325,140.234 197.384,140.234 197.593 C 140.234 197.803,140.586 197.882,141.016 197.769 C 141.445 197.657,141.797 197.756,141.797 197.989 C 141.797 198.222,142.061 198.312,142.383 198.188 C 142.705 198.064,142.969 198.152,142.969 198.383 C 142.969 198.615,143.232 198.702,143.555 198.579 C 143.877 198.455,144.141 198.559,144.141 198.809 C 144.141 199.060,144.316 199.156,144.531 199.023 C 144.746 198.891,145.142 198.920,145.410 199.088 C 145.902 199.396,146.097 199.441,147.386 199.550 C 147.775 199.583,147.986 199.783,147.854 199.996 C 147.717 200.217,147.874 200.282,148.222 200.149 C 148.555 200.021,148.828 200.105,148.828 200.337 C 148.828 200.568,149.092 200.656,149.414 200.532 C 149.736 200.408,150.000 200.464,150.000 200.656 C 150.000 200.848,150.393 201.035,150.873 201.071 C 151.353 201.108,151.808 201.322,151.883 201.548 C 151.958 201.773,152.181 201.859,152.377 201.737 C 152.574 201.616,152.734 201.697,152.734 201.918 C 152.734 202.139,152.975 202.227,153.270 202.114 C 153.565 202.001,154.071 202.174,154.395 202.498 C 154.720 202.822,155.094 202.979,155.227 202.846 C 155.360 202.713,155.469 202.820,155.469 203.083 C 155.469 203.346,155.645 203.453,155.859 203.320 C 156.074 203.188,156.250 203.260,156.250 203.480 C 156.250 203.701,156.512 203.781,156.833 203.658 C 157.165 203.531,157.518 203.703,157.655 204.059 C 157.787 204.402,158.052 204.586,158.244 204.467 C 158.436 204.348,158.594 204.447,158.594 204.688 C 158.594 204.928,158.796 204.999,159.044 204.846 C 159.291 204.693,159.715 204.870,159.985 205.240 C 160.255 205.609,160.624 205.902,160.804 205.890 C 161.613 205.838,162.488 206.345,162.250 206.729 C 162.097 206.976,162.170 207.040,162.425 206.882 C 162.666 206.734,163.205 206.955,163.625 207.375 C 164.045 207.795,164.486 208.040,164.607 207.919 C 164.727 207.799,164.936 207.989,165.071 208.340 C 165.206 208.692,165.475 208.882,165.669 208.762 C 165.863 208.642,166.126 208.818,166.255 209.153 C 166.383 209.487,166.647 209.663,166.841 209.543 C 167.034 209.424,167.298 209.599,167.427 209.934 C 167.555 210.269,167.811 210.449,167.995 210.335 C 168.180 210.221,169.068 210.864,169.968 211.765 C 170.868 212.665,171.478 213.155,171.323 212.853 C 171.167 212.552,171.694 213.008,172.493 213.867 C 173.292 214.727,173.808 215.166,173.639 214.844 C 173.470 214.521,174.850 215.748,176.705 217.570 C 180.073 220.877,180.510 221.376,179.590 220.873 C 179.321 220.725,179.761 221.167,180.566 221.854 C 181.372 222.542,182.031 223.242,182.031 223.411 C 182.031 223.580,182.648 224.373,183.402 225.172 C 184.156 225.972,184.684 226.769,184.576 226.944 C 184.468 227.119,184.653 227.367,184.988 227.495 C 185.323 227.624,185.498 227.887,185.379 228.081 C 185.259 228.275,185.435 228.539,185.769 228.667 C 186.104 228.796,186.280 229.059,186.160 229.253 C 186.040 229.447,186.230 229.716,186.582 229.851 C 186.933 229.986,187.111 230.207,186.976 230.342 C 186.841 230.476,186.982 230.780,187.289 231.016 C 187.596 231.252,187.901 231.694,187.967 231.999 C 188.032 232.303,188.400 232.881,188.784 233.282 C 189.168 233.684,189.377 234.182,189.249 234.389 C 189.121 234.596,189.213 234.766,189.453 234.766 C 189.693 234.766,189.781 234.941,189.648 235.156 C 189.516 235.371,189.604 235.547,189.844 235.547 C 190.084 235.547,190.172 235.723,190.039 235.938 C 189.906 236.152,190.013 236.328,190.276 236.328 C 190.540 236.328,190.646 236.437,190.513 236.570 C 190.380 236.703,190.528 237.069,190.843 237.383 C 191.157 237.697,191.314 238.115,191.191 238.313 C 191.069 238.510,191.166 238.672,191.406 238.672 C 191.646 238.672,191.734 238.848,191.602 239.063 C 191.469 239.277,191.557 239.453,191.797 239.453 C 192.037 239.453,192.125 239.629,191.992 239.844 C 191.859 240.059,191.947 240.234,192.188 240.234 C 192.428 240.234,192.516 240.410,192.383 240.625 C 192.250 240.840,192.338 241.016,192.578 241.016 C 192.818 241.016,192.915 241.176,192.794 241.373 C 192.673 241.569,192.734 241.789,192.931 241.861 C 193.127 241.933,193.348 242.344,193.421 242.773 C 193.495 243.203,193.785 243.797,194.065 244.093 C 194.346 244.390,194.484 244.873,194.371 245.168 C 194.258 245.462,194.354 245.703,194.585 245.703 C 194.816 245.703,194.909 245.955,194.790 246.264 C 194.672 246.572,194.749 246.882,194.961 246.953 C 195.173 247.024,195.377 247.475,195.413 247.955 C 195.449 248.435,195.636 248.828,195.828 248.828 C 196.020 248.828,196.081 249.080,195.962 249.389 C 195.844 249.697,195.920 250.007,196.133 250.078 C 196.345 250.149,196.565 250.651,196.623 251.194 C 196.681 251.737,196.860 252.394,197.020 252.653 C 197.181 252.913,197.203 253.301,197.070 253.516 C 196.938 253.730,197.034 253.906,197.284 253.906 C 197.535 253.906,197.641 254.164,197.520 254.480 C 197.399 254.795,197.480 255.164,197.700 255.300 C 197.920 255.436,198.006 255.794,197.890 256.094 C 197.775 256.395,197.870 256.641,198.101 256.641 C 198.332 256.641,198.422 256.899,198.301 257.214 C 198.180 257.529,198.256 257.896,198.470 258.028 C 198.685 258.161,198.753 258.606,198.622 259.017 C 198.480 259.467,198.569 259.766,198.847 259.766 C 199.118 259.766,199.225 260.090,199.106 260.547 C 198.993 260.977,199.081 261.328,199.301 261.328 C 199.521 261.328,199.616 261.768,199.514 262.305 C 199.368 263.066,199.489 263.281,200.062 263.281 C 200.650 263.281,200.747 263.087,200.551 262.305 C 200.398 261.696,200.472 261.328,200.746 261.328 C 201.021 261.328,201.095 260.961,200.942 260.352 C 200.801 259.790,200.865 259.375,201.093 259.375 C 201.311 259.375,201.397 259.023,201.285 258.594 C 201.173 258.164,201.272 257.813,201.505 257.813 C 201.738 257.813,201.827 257.549,201.704 257.227 C 201.580 256.904,201.692 256.641,201.953 256.641 C 202.214 256.641,202.328 256.383,202.207 256.067 C 202.086 255.752,202.148 255.395,202.344 255.273 C 202.540 255.152,202.601 254.795,202.480 254.480 C 202.359 254.164,202.438 253.906,202.656 253.906 C 202.874 253.906,202.960 253.555,202.848 253.125 C 202.735 252.695,202.834 252.344,203.067 252.344 C 203.300 252.344,203.390 252.080,203.266 251.758 C 203.143 251.436,203.230 251.172,203.462 251.172 C 203.693 251.172,203.781 250.908,203.657 250.586 C 203.533 250.264,203.621 250.000,203.852 250.000 C 204.084 250.000,204.160 249.708,204.023 249.350 C 203.856 248.916,203.924 248.793,204.226 248.980 C 204.522 249.162,204.598 249.049,204.446 248.653 C 204.318 248.320,204.402 248.047,204.633 248.047 C 204.865 248.047,204.952 247.783,204.829 247.461 C 204.705 247.139,204.809 246.875,205.059 246.875 C 205.310 246.875,205.406 246.699,205.273 246.484 C 205.141 246.270,205.213 246.094,205.433 246.094 C 205.654 246.094,205.734 245.830,205.610 245.508 C 205.486 245.186,205.590 244.922,205.841 244.922 C 206.091 244.922,206.187 244.746,206.055 244.531 C 205.922 244.316,205.994 244.141,206.215 244.141 C 206.435 244.141,206.524 243.900,206.411 243.605 C 206.298 243.310,206.470 242.804,206.795 242.480 C 207.119 242.155,207.276 241.781,207.143 241.648 C 207.010 241.515,207.116 241.406,207.380 241.406 C 207.643 241.406,207.766 241.257,207.654 241.074 C 207.364 240.605,210.035 235.156,210.555 235.156 C 210.791 235.156,210.875 234.980,210.742 234.766 C 210.609 234.551,210.697 234.375,210.938 234.375 C 211.178 234.375,211.270 234.206,211.142 233.999 C 211.014 233.792,211.223 233.294,211.607 232.892 C 211.991 232.490,212.355 231.937,212.416 231.664 C 212.603 230.832,215.628 226.563,216.030 226.563 C 216.237 226.563,216.378 226.431,216.344 226.270 C 216.212 225.646,216.899 224.627,217.289 224.867 C 217.514 225.007,217.602 224.962,217.483 224.767 C 217.364 224.573,217.800 223.799,218.451 223.047 C 219.102 222.295,219.496 221.927,219.327 222.228 C 219.120 222.597,219.170 222.685,219.477 222.494 C 219.729 222.339,219.843 222.063,219.730 221.881 C 219.618 221.699,220.362 220.804,221.384 219.893 C 222.406 218.981,222.891 218.476,222.461 218.769 C 222.031 219.062,222.279 218.657,223.011 217.869 C 223.743 217.081,224.478 216.521,224.644 216.623 C 224.810 216.726,225.073 216.604,225.229 216.352 C 225.417 216.047,225.341 216.000,225.000 216.211 C 224.662 216.420,224.583 216.374,224.767 216.076 C 224.921 215.828,225.255 215.625,225.511 215.625 C 225.767 215.625,226.477 214.998,227.089 214.231 C 227.701 213.464,228.290 212.926,228.399 213.034 C 228.507 213.143,229.032 212.759,229.564 212.182 C 230.096 211.605,230.393 211.395,230.224 211.716 C 230.054 212.036,230.577 211.636,231.386 210.827 C 232.195 210.018,233.004 209.448,233.184 209.559 C 233.365 209.670,233.617 209.487,233.745 209.153 C 233.874 208.818,234.137 208.642,234.331 208.762 C 234.525 208.882,234.789 208.706,234.917 208.371 C 235.046 208.037,235.309 207.861,235.503 207.981 C 235.697 208.101,235.961 207.925,236.089 207.590 C 236.218 207.256,236.500 207.091,236.716 207.225 C 236.932 207.359,237.109 207.286,237.109 207.064 C 237.109 206.557,239.268 205.413,239.599 205.745 C 239.734 205.879,239.844 205.774,239.844 205.511 C 239.844 205.247,240.020 205.141,240.234 205.273 C 240.449 205.406,240.625 205.318,240.625 205.078 C 240.625 204.838,240.801 204.750,241.016 204.883 C 241.230 205.016,241.406 204.928,241.406 204.688 C 241.406 204.447,241.582 204.359,241.797 204.492 C 242.012 204.625,242.188 204.537,242.188 204.297 C 242.188 204.057,242.363 203.969,242.578 204.102 C 242.793 204.234,242.969 204.146,242.969 203.906 C 242.969 203.666,243.130 203.569,243.326 203.690 C 243.523 203.812,243.742 203.747,243.814 203.547 C 243.886 203.347,244.205 203.126,244.522 203.057 C 244.839 202.987,245.345 202.700,245.647 202.419 C 245.948 202.138,246.435 202.001,246.730 202.114 C 247.025 202.227,247.266 202.139,247.266 201.918 C 247.266 201.697,247.441 201.625,247.656 201.758 C 247.871 201.891,248.047 201.794,248.047 201.544 C 248.047 201.293,248.311 201.189,248.633 201.313 C 248.955 201.437,249.219 201.357,249.219 201.137 C 249.219 200.916,249.395 200.844,249.609 200.977 C 249.824 201.109,250.000 201.013,250.000 200.763 C 250.000 200.512,250.264 200.408,250.586 200.532 C 250.908 200.656,251.172 200.568,251.172 200.337 C 251.172 200.105,251.436 200.018,251.758 200.141 C 252.080 200.265,252.344 200.185,252.344 199.965 C 252.344 199.744,252.520 199.672,252.734 199.805 C 252.949 199.937,253.125 199.841,253.125 199.591 C 253.125 199.340,253.389 199.236,253.711 199.360 C 254.033 199.484,254.297 199.396,254.297 199.165 C 254.297 198.934,254.549 198.841,254.858 198.960 C 255.166 199.078,255.475 199.005,255.544 198.798 C 255.613 198.591,256.239 198.381,256.936 198.332 C 257.632 198.282,258.202 198.099,258.202 197.923 C 258.203 197.747,258.555 197.715,258.984 197.852 C 259.463 198.003,259.766 197.922,259.766 197.641 C 259.766 197.388,260.029 197.283,260.352 197.407 C 260.674 197.531,260.938 197.441,260.938 197.208 C 260.938 196.975,261.289 196.876,261.719 196.988 C 262.148 197.101,262.500 197.013,262.500 196.793 C 262.500 196.573,262.822 196.478,263.216 196.581 C 263.623 196.687,263.932 196.561,263.932 196.289 C 263.932 196.017,263.623 195.891,263.216 195.998 C 262.819 196.101,262.500 195.979,262.500 195.722 C 262.500 195.438,262.200 195.355,261.719 195.508 C 261.281 195.647,260.938 195.578,260.938 195.351 C 260.938 195.129,260.674 195.048,260.352 195.171 C 260.029 195.295,259.766 195.207,259.766 194.976 C 259.766 194.745,259.502 194.657,259.180 194.781 C 258.857 194.904,258.594 194.803,258.594 194.556 C 258.594 194.309,258.374 194.147,258.105 194.197 C 257.265 194.353,255.078 193.707,255.078 193.302 C 255.078 193.086,254.712 193.032,254.248 193.180 C 253.694 193.355,253.506 193.301,253.682 193.015 C 253.848 192.747,253.721 192.674,253.341 192.820 C 253.007 192.948,252.734 192.863,252.734 192.632 C 252.734 192.401,252.471 192.313,252.148 192.437 C 251.826 192.561,251.563 192.473,251.563 192.242 C 251.563 192.010,251.299 191.923,250.977 192.046 C 250.654 192.170,250.391 192.066,250.391 191.816 C 250.391 191.565,250.215 191.469,250.000 191.602 C 249.785 191.734,249.609 191.662,249.609 191.442 C 249.609 191.221,249.368 191.133,249.074 191.246 C 248.779 191.359,248.294 191.207,247.996 190.909 C 247.698 190.611,247.211 190.448,246.915 190.547 C 246.591 190.655,246.484 190.552,246.646 190.290 C 246.812 190.020,246.703 189.934,246.360 190.066 C 246.054 190.183,245.538 190.014,245.214 189.690 C 244.890 189.365,244.515 189.209,244.382 189.342 C 244.249 189.475,244.141 189.368,244.141 189.105 C 244.141 188.841,243.965 188.734,243.750 188.867 C 243.535 189.000,243.359 188.912,243.359 188.672 C 243.359 188.432,243.184 188.344,242.969 188.477 C 242.754 188.609,242.578 188.521,242.578 188.281 C 242.578 188.041,242.402 187.953,242.188 188.086 C 241.973 188.219,241.797 188.131,241.797 187.891 C 241.797 187.650,241.621 187.563,241.406 187.695 C 241.191 187.828,241.016 187.740,241.016 187.500 C 241.016 187.260,240.840 187.172,240.625 187.305 C 240.410 187.437,240.234 187.331,240.234 187.067 C 240.234 186.804,240.124 186.699,239.990 186.833 C 239.658 187.165,237.500 186.021,237.500 185.514 C 237.500 185.292,237.331 185.215,237.124 185.343 C 236.917 185.471,236.404 185.232,235.984 184.812 C 235.565 184.393,235.123 184.148,235.003 184.268 C 234.882 184.388,234.674 184.199,234.539 183.847 C 234.404 183.495,234.137 183.304,233.947 183.422 C 233.756 183.539,233.159 183.195,232.620 182.656 C 232.082 182.117,231.635 181.800,231.628 181.951 C 231.620 182.103,231.269 181.812,230.846 181.304 C 230.424 180.797,230.072 180.534,230.064 180.718 C 230.056 180.903,229.598 180.527,229.045 179.883 C 228.492 179.238,228.158 178.975,228.303 179.297 C 228.448 179.619,227.733 179.004,226.713 177.930 C 225.693 176.855,225.100 176.328,225.395 176.758 C 225.689 177.188,224.578 176.225,222.926 174.619 C 219.917 171.694,219.499 171.210,220.410 171.702 C 220.679 171.847,220.107 171.230,219.141 170.331 C 218.174 169.433,217.646 168.820,217.969 168.971 C 218.291 169.121,217.939 168.700,217.188 168.036 C 216.436 167.372,215.935 166.821,216.075 166.813 C 216.215 166.804,215.820 166.252,215.197 165.585 C 214.575 164.919,214.152 164.234,214.257 164.064 C 214.362 163.893,214.161 163.643,213.809 163.508 C 213.457 163.373,213.268 163.164,213.388 163.044 C 213.508 162.924,213.263 162.482,212.844 162.063 C 212.424 161.643,212.174 161.149,212.288 160.964 C 212.402 160.780,212.222 160.524,211.887 160.395 C 211.552 160.267,211.388 159.985,211.522 159.768 C 211.655 159.552,211.568 159.375,211.328 159.375 C 211.088 159.375,211.000 159.199,211.133 158.984 C 211.266 158.770,211.178 158.594,210.938 158.594 C 210.697 158.594,210.609 158.418,210.742 158.203 C 210.875 157.988,210.801 157.813,210.578 157.813 C 210.072 157.813,208.538 154.873,208.871 154.541 C 209.005 154.407,208.938 154.297,208.722 154.297 C 208.214 154.297,207.343 152.396,207.635 151.924 C 207.758 151.725,207.662 151.563,207.422 151.563 C 207.182 151.563,207.094 151.387,207.227 151.172 C 207.359 150.957,207.253 150.781,206.989 150.781 C 206.726 150.781,206.619 150.672,206.752 150.539 C 206.885 150.406,206.729 150.032,206.404 149.708 C 206.080 149.383,205.903 148.888,206.010 148.608 C 206.118 148.327,206.032 148.039,205.820 147.969 C 205.608 147.898,205.404 147.447,205.368 146.967 C 205.332 146.487,205.145 146.094,204.953 146.094 C 204.761 146.094,204.705 145.830,204.829 145.508 C 204.952 145.186,204.865 144.922,204.633 144.922 C 204.402 144.922,204.314 144.658,204.438 144.336 C 204.562 144.014,204.474 143.750,204.243 143.750 C 204.012 143.750,203.924 143.486,204.048 143.164 C 204.171 142.842,204.083 142.578,203.852 142.578 C 203.621 142.578,203.533 142.314,203.657 141.992 C 203.781 141.670,203.693 141.406,203.462 141.406 C 203.230 141.406,203.143 141.143,203.266 140.820 C 203.390 140.498,203.302 140.234,203.071 140.234 C 202.840 140.234,202.750 139.976,202.871 139.661 C 202.992 139.346,202.911 138.976,202.691 138.840 C 202.471 138.704,202.385 138.347,202.500 138.046 C 202.615 137.746,202.519 137.500,202.286 137.500 C 202.053 137.500,201.954 137.148,202.066 136.719 C 202.179 136.289,202.092 135.938,201.875 135.938 C 201.657 135.938,201.578 135.679,201.699 135.364 C 201.820 135.049,201.744 134.682,201.530 134.550 C 201.315 134.418,201.254 133.950,201.393 133.512 C 201.577 132.933,201.512 132.797,201.157 133.017 C 200.797 133.239,200.720 133.046,200.866 132.285 C 200.975 131.716,200.892 131.250,200.682 131.250 C 200.471 131.250,200.388 130.910,200.497 130.494 C 200.615 130.043,200.463 129.649,200.120 129.517 C 199.233 129.177,199.187 129.229,199.449 130.273 " stroke="none" fill="#fbe37b" fill-rule="evenodd"></path><path id="path1" d="M199.767 79.627 C 199.933 79.894,199.798 80.078,199.437 80.078 C 199.102 80.078,198.828 80.254,198.828 80.469 C 198.828 80.684,198.574 80.859,198.264 80.859 C 197.954 80.859,197.455 81.210,197.155 81.638 C 196.855 82.066,196.479 82.286,196.319 82.126 C 196.159 81.967,196.064 82.012,196.107 82.227 C 196.284 83.101,196.071 84.017,195.740 83.812 C 195.545 83.691,195.485 83.972,195.606 84.436 C 195.736 84.934,195.670 85.182,195.445 85.043 C 195.215 84.901,195.134 85.287,195.240 86.014 C 195.341 86.697,195.261 87.124,195.056 86.997 C 194.850 86.869,194.764 87.372,194.857 88.167 C 194.956 89.016,194.870 89.467,194.637 89.323 C 194.409 89.183,194.329 89.479,194.438 90.051 C 194.539 90.581,194.456 91.016,194.254 91.016 C 194.051 91.016,193.966 91.568,194.065 92.243 C 194.171 92.965,194.092 93.376,193.873 93.240 C 193.656 93.106,193.571 93.491,193.670 94.161 C 193.763 94.794,193.673 95.313,193.471 95.313 C 193.269 95.313,193.185 95.865,193.284 96.540 C 193.387 97.237,193.308 97.671,193.103 97.544 C 192.897 97.416,192.811 97.919,192.904 98.714 C 193.028 99.773,192.947 100.033,192.567 99.798 C 192.245 99.599,192.163 99.645,192.338 99.927 C 192.667 100.459,192.195 104.348,191.829 104.122 C 191.686 104.033,191.643 104.588,191.732 105.354 C 191.856 106.414,191.775 106.673,191.395 106.438 C 191.061 106.232,190.991 106.285,191.185 106.598 C 191.533 107.162,191.058 111.010,190.670 110.770 C 190.520 110.677,190.471 111.229,190.560 111.995 C 190.684 113.054,190.603 113.314,190.223 113.079 C 189.897 112.877,189.819 112.926,190.000 113.219 C 190.341 113.770,189.473 119.980,189.089 119.743 C 188.937 119.649,188.893 120.116,188.990 120.779 C 189.112 121.607,189.030 121.901,188.729 121.715 C 188.448 121.541,188.375 121.664,188.524 122.054 C 188.813 122.807,187.910 127.792,187.527 127.556 C 187.375 127.462,187.330 127.928,187.428 128.592 C 187.536 129.329,187.454 129.705,187.218 129.559 C 186.984 129.415,186.909 129.724,187.027 130.343 C 187.174 131.113,187.097 131.288,186.715 131.052 C 186.375 130.842,186.302 130.892,186.495 131.205 C 186.838 131.758,185.928 135.587,185.514 135.332 C 185.358 135.235,185.328 135.534,185.450 135.998 C 185.614 136.626,185.539 136.760,185.157 136.524 C 184.821 136.316,184.739 136.360,184.919 136.650 C 185.253 137.191,184.378 140.282,183.963 140.026 C 183.800 139.925,183.766 140.222,183.887 140.686 C 184.051 141.313,183.977 141.448,183.595 141.212 C 183.254 141.001,183.176 141.047,183.363 141.349 C 183.712 141.914,183.264 143.443,182.828 143.174 C 182.653 143.066,182.518 143.195,182.528 143.461 C 182.573 144.715,182.388 145.338,182.036 145.120 C 181.806 144.978,181.754 145.153,181.907 145.552 C 182.095 146.042,182.025 146.136,181.647 145.902 C 181.301 145.689,181.223 145.733,181.409 146.036 C 181.777 146.630,177.739 154.346,177.226 154.029 C 177.009 153.895,176.938 153.956,177.067 154.165 C 177.384 154.678,175.220 157.895,174.809 157.522 C 174.630 157.359,174.598 157.426,174.738 157.670 C 175.011 158.149,170.359 164.240,169.997 163.877 C 169.693 163.573,167.174 166.068,167.406 166.443 C 167.637 166.818,164.491 169.377,163.982 169.229 C 163.779 169.170,163.714 169.283,163.836 169.481 C 164.059 169.842,162.974 170.498,162.373 170.365 C 162.196 170.325,162.157 170.464,162.287 170.674 C 162.576 171.142,161.160 171.956,160.731 171.568 C 160.561 171.415,160.524 171.471,160.650 171.692 C 160.905 172.142,158.470 173.958,157.613 173.958 C 157.312 173.958,157.148 174.092,157.249 174.256 C 157.441 174.566,155.904 175.220,155.342 175.068 C 155.165 175.020,155.150 175.191,155.308 175.447 C 155.507 175.768,155.388 175.834,154.927 175.657 C 154.555 175.514,154.355 175.560,154.479 175.759 C 154.734 176.173,146.713 180.133,145.448 180.217 C 144.985 180.248,144.676 180.387,144.762 180.526 C 145.001 180.913,134.803 184.082,134.138 183.827 C 133.766 183.685,133.653 183.764,133.827 184.045 C 134.014 184.348,133.777 184.426,133.078 184.293 C 132.452 184.173,132.149 184.249,132.296 184.488 C 132.444 184.727,132.141 184.803,131.515 184.683 C 130.889 184.564,130.586 184.640,130.734 184.879 C 130.882 185.118,130.579 185.194,129.953 185.074 C 129.327 184.954,129.024 185.030,129.171 185.269 C 129.319 185.508,129.016 185.584,128.390 185.465 C 127.828 185.357,127.447 185.398,127.544 185.555 C 127.780 185.937,124.677 186.416,124.135 186.081 C 123.891 185.930,123.818 185.996,123.965 186.233 C 124.274 186.734,121.347 187.312,120.657 186.886 C 120.382 186.715,120.294 186.764,120.443 187.005 C 120.743 187.490,117.415 188.077,116.738 187.659 C 116.440 187.475,116.392 187.552,116.597 187.883 C 116.832 188.264,116.615 188.343,115.701 188.209 C 114.993 188.105,114.590 188.186,114.725 188.404 C 114.860 188.623,114.456 188.704,113.748 188.600 C 113.084 188.502,112.612 188.538,112.699 188.678 C 112.927 189.048,107.862 189.920,107.345 189.601 C 107.066 189.428,107.022 189.512,107.222 189.836 C 107.457 190.217,107.240 190.296,106.326 190.162 C 105.618 190.058,105.215 190.139,105.350 190.358 C 105.485 190.576,105.081 190.657,104.373 190.553 C 103.709 190.455,103.238 190.491,103.325 190.632 C 103.555 191.005,99.623 191.847,99.086 191.540 C 98.837 191.398,98.759 191.420,98.913 191.591 C 99.209 191.919,97.287 193.620,96.799 193.462 C 96.641 193.411,96.624 193.659,96.760 194.014 C 96.896 194.369,96.846 194.559,96.648 194.437 C 96.447 194.313,96.289 195.126,96.289 196.289 C 96.289 197.430,96.421 198.281,96.582 198.182 C 96.852 198.015,97.032 198.617,96.921 199.316 C 96.896 199.478,97.095 199.565,97.363 199.512 C 97.632 199.458,97.820 199.596,97.782 199.819 C 97.743 200.041,98.007 200.244,98.368 200.269 C 99.585 200.353,101.963 201.423,101.664 201.752 C 101.501 201.931,101.593 201.948,101.870 201.789 C 102.477 201.438,105.546 201.903,105.296 202.308 C 105.199 202.465,105.662 202.513,106.326 202.416 C 107.034 202.312,107.438 202.393,107.303 202.611 C 107.168 202.830,107.571 202.910,108.279 202.807 C 108.987 202.703,109.391 202.783,109.256 203.002 C 109.121 203.220,109.525 203.301,110.232 203.197 C 110.940 203.093,111.344 203.174,111.209 203.392 C 111.074 203.611,111.478 203.692,112.185 203.588 C 113.099 203.454,113.317 203.533,113.081 203.914 C 112.873 204.250,112.925 204.322,113.235 204.130 C 113.803 203.779,116.871 204.251,116.624 204.651 C 116.527 204.808,116.991 204.857,117.654 204.760 C 118.362 204.656,118.766 204.737,118.631 204.955 C 118.496 205.173,118.900 205.254,119.607 205.150 C 120.315 205.046,120.719 205.127,120.584 205.346 C 120.449 205.564,120.853 205.645,121.560 205.541 C 122.268 205.437,122.672 205.518,122.537 205.736 C 122.402 205.955,122.806 206.035,123.514 205.932 C 124.427 205.797,124.645 205.877,124.409 206.258 C 124.201 206.594,124.253 206.666,124.563 206.474 C 125.143 206.116,128.197 206.599,127.943 207.009 C 127.841 207.174,128.218 207.221,128.781 207.113 C 129.407 206.994,129.710 207.070,129.562 207.309 C 129.416 207.545,129.701 207.627,130.285 207.515 C 130.832 207.411,131.250 207.515,131.250 207.755 C 131.250 207.988,131.499 208.083,131.803 207.966 C 132.488 207.703,137.109 208.965,137.109 209.414 C 137.109 209.594,137.374 209.639,137.698 209.515 C 138.394 209.248,144.581 211.323,144.325 211.737 C 144.228 211.893,144.367 212.013,144.633 212.004 C 145.970 211.956,146.511 212.142,146.252 212.560 C 146.090 212.822,146.144 212.906,146.379 212.760 C 146.927 212.421,149.274 213.267,149.003 213.705 C 148.884 213.897,149.089 213.938,149.458 213.796 C 149.910 213.623,150.037 213.687,149.848 213.992 C 149.660 214.297,149.787 214.360,150.239 214.187 C 150.730 213.999,150.824 214.068,150.590 214.447 C 150.384 214.780,150.421 214.871,150.694 214.702 C 151.231 214.371,153.945 215.638,153.665 216.090 C 153.551 216.274,153.602 216.386,153.780 216.339 C 154.460 216.155,155.859 216.872,155.609 217.276 C 155.454 217.528,155.530 217.586,155.798 217.421 C 156.339 217.086,157.932 218.110,157.517 218.525 C 157.357 218.684,157.402 218.780,157.617 218.736 C 158.489 218.560,159.015 218.775,158.752 219.201 C 158.594 219.456,158.643 219.547,158.866 219.409 C 159.377 219.093,161.797 220.876,161.421 221.292 C 161.262 221.467,161.322 221.502,161.553 221.371 C 162.133 221.041,166.880 224.941,166.549 225.475 C 166.404 225.710,166.461 225.794,166.675 225.661 C 166.889 225.529,167.653 226.029,168.374 226.773 C 169.095 227.517,169.541 228.125,169.365 228.125 C 169.189 228.125,169.262 228.387,169.528 228.707 C 169.793 229.027,170.157 229.197,170.337 229.086 C 170.724 228.847,172.509 231.176,172.354 231.717 C 172.295 231.922,172.418 231.983,172.627 231.854 C 173.095 231.565,173.909 232.980,173.521 233.410 C 173.368 233.580,173.443 233.604,173.688 233.464 C 174.154 233.198,175.521 234.960,175.521 235.828 C 175.521 236.103,175.608 236.241,175.714 236.135 C 176.071 235.778,177.775 238.680,177.495 239.167 C 177.343 239.432,177.364 239.516,177.543 239.354 C 177.985 238.953,179.803 242.076,179.454 242.639 C 179.269 242.939,179.350 242.982,179.694 242.770 C 180.072 242.536,180.142 242.629,179.954 243.120 C 179.812 243.489,179.848 243.697,180.034 243.582 C 180.472 243.311,182.102 247.226,181.772 247.760 C 181.633 247.984,181.695 248.059,181.910 247.927 C 182.364 247.646,183.285 250.333,182.931 250.906 C 182.787 251.139,182.895 251.167,183.204 250.976 C 183.586 250.740,183.661 250.874,183.496 251.502 C 183.355 252.042,183.425 252.253,183.692 252.088 C 183.958 251.923,184.028 252.134,183.887 252.674 C 183.746 253.214,183.816 253.424,184.082 253.260 C 184.349 253.095,184.419 253.306,184.278 253.846 C 184.136 254.386,184.207 254.596,184.473 254.432 C 184.739 254.267,184.810 254.477,184.668 255.018 C 184.547 255.481,184.586 255.775,184.754 255.671 C 185.150 255.427,185.624 257.762,185.289 258.304 C 185.131 258.560,185.226 258.597,185.543 258.401 C 185.925 258.165,186.002 258.340,185.855 259.110 C 185.748 259.672,185.791 260.052,185.951 259.953 C 186.349 259.707,186.825 262.403,186.482 262.958 C 186.302 263.248,186.383 263.293,186.715 263.088 C 187.097 262.852,187.174 263.028,187.027 263.797 C 186.920 264.360,186.960 264.741,187.117 264.644 C 187.500 264.407,187.979 267.510,187.643 268.053 C 187.475 268.325,187.562 268.367,187.883 268.169 C 188.265 267.933,188.343 268.154,188.206 269.085 C 188.107 269.760,188.191 270.313,188.393 270.313 C 188.595 270.313,188.685 270.831,188.592 271.464 C 188.499 272.097,188.550 272.536,188.706 272.440 C 189.102 272.195,189.586 276.031,189.232 276.605 C 189.038 276.918,189.108 276.971,189.442 276.765 C 189.822 276.530,189.903 276.789,189.779 277.849 C 189.687 278.634,189.773 279.146,189.974 279.021 C 190.176 278.896,190.261 279.407,190.170 280.193 C 190.078 280.978,190.163 281.489,190.365 281.365 C 190.567 281.240,190.652 281.751,190.560 282.536 C 190.467 283.331,190.553 283.834,190.759 283.706 C 190.964 283.580,191.044 284.006,190.943 284.690 C 190.841 285.390,190.921 285.801,191.135 285.668 C 191.351 285.535,191.437 286.019,191.342 286.833 C 191.252 287.600,191.301 288.151,191.451 288.058 C 191.840 287.818,192.315 291.666,191.966 292.230 C 191.772 292.543,191.842 292.596,192.176 292.390 C 192.556 292.155,192.637 292.414,192.513 293.474 C 192.424 294.240,192.466 294.796,192.606 294.709 C 192.999 294.466,193.887 300.243,193.543 300.801 C 193.355 301.105,193.397 301.195,193.653 301.037 C 194.151 300.729,194.744 304.418,194.310 305.120 C 194.115 305.435,194.186 305.487,194.523 305.278 C 194.905 305.043,194.984 305.260,194.850 306.174 C 194.752 306.838,194.817 307.292,194.993 307.183 C 195.286 307.002,195.459 307.686,195.420 308.871 C 195.411 309.132,195.536 309.307,195.697 309.262 C 195.859 309.217,196.337 309.603,196.760 310.120 C 197.489 311.012,201.841 312.095,201.322 311.255 C 201.135 310.953,202.094 310.755,202.930 310.924 C 203.145 310.967,203.193 310.876,203.038 310.721 C 202.883 310.565,203.191 309.922,203.722 309.291 C 204.253 308.660,204.688 307.795,204.688 307.369 C 204.688 306.943,204.827 306.680,204.996 306.785 C 205.166 306.891,205.232 306.350,205.143 305.583 C 205.048 304.769,205.134 304.285,205.349 304.418 C 205.563 304.551,205.644 304.140,205.541 303.440 C 205.443 302.776,205.519 302.328,205.709 302.445 C 205.899 302.561,206.064 302.015,206.076 301.231 C 206.106 299.204,207.494 291.405,207.792 291.589 C 207.928 291.673,207.967 291.115,207.877 290.349 C 207.782 289.535,207.868 289.051,208.083 289.184 C 208.298 289.316,208.378 288.905,208.275 288.205 C 208.175 287.521,208.255 287.095,208.460 287.222 C 208.666 287.349,208.751 286.847,208.658 286.052 C 208.567 285.267,208.652 284.755,208.854 284.880 C 209.056 285.005,209.141 284.494,209.049 283.708 C 208.957 282.923,209.043 282.412,209.244 282.536 C 209.446 282.661,209.531 282.150,209.440 281.365 C 209.348 280.579,209.433 280.068,209.635 280.193 C 209.837 280.317,209.922 279.806,209.830 279.021 C 209.739 278.235,209.824 277.724,210.026 277.849 C 210.227 277.974,210.313 277.463,210.221 276.677 C 210.129 275.892,210.214 275.380,210.416 275.505 C 210.618 275.630,210.703 275.119,210.612 274.333 C 210.488 273.274,210.569 273.014,210.949 273.249 C 211.277 273.452,211.353 273.402,211.169 273.106 C 210.827 272.552,211.306 269.081,211.692 269.319 C 211.844 269.413,211.888 268.947,211.791 268.283 C 211.683 267.546,211.764 267.170,212.000 267.316 C 212.235 267.460,212.310 267.151,212.192 266.532 C 212.044 265.762,212.122 265.587,212.504 265.823 C 212.828 266.023,212.916 265.982,212.747 265.709 C 212.346 265.060,212.920 262.082,213.390 262.372 C 213.627 262.518,213.674 262.429,213.505 262.155 C 213.114 261.522,214.102 257.791,214.582 258.088 C 214.795 258.219,214.840 258.123,214.684 257.870 C 214.361 257.347,216.810 249.571,217.219 249.824 C 217.368 249.916,217.482 249.774,217.472 249.508 C 217.424 248.171,217.610 247.630,218.029 247.889 C 218.287 248.048,218.375 247.997,218.235 247.770 C 217.911 247.246,219.155 244.103,219.582 244.367 C 219.764 244.480,219.797 244.270,219.656 243.902 C 219.482 243.450,219.546 243.322,219.851 243.511 C 220.156 243.699,220.220 243.572,220.046 243.120 C 219.858 242.629,219.928 242.536,220.306 242.770 C 220.633 242.972,220.730 242.938,220.569 242.677 C 220.236 242.138,222.035 238.972,222.458 239.355 C 222.636 239.516,222.655 239.429,222.501 239.161 C 222.170 238.586,223.178 236.980,223.603 237.405 C 223.763 237.565,223.858 237.520,223.814 237.305 C 223.646 236.468,223.847 235.903,224.228 236.139 C 224.449 236.275,224.604 236.241,224.573 236.064 C 224.424 235.206,224.652 234.744,225.098 235.001 C 225.366 235.155,225.460 235.142,225.307 234.972 C 224.878 234.498,225.753 233.142,226.289 233.450 C 226.547 233.598,226.632 233.580,226.479 233.410 C 226.050 232.935,226.925 231.580,227.461 231.888 C 227.719 232.036,227.803 232.016,227.647 231.844 C 227.278 231.435,229.600 228.506,230.202 228.622 C 230.456 228.671,230.629 228.517,230.586 228.281 C 230.543 228.044,231.114 227.262,231.855 226.544 C 232.597 225.825,233.203 225.381,233.203 225.557 C 233.203 225.733,233.465 225.660,233.785 225.394 C 234.105 225.129,234.282 224.775,234.179 224.609 C 233.918 224.186,236.553 222.237,236.928 222.575 C 237.097 222.727,237.114 222.641,236.966 222.383 C 236.658 221.847,238.013 220.972,238.488 221.400 C 238.658 221.554,238.676 221.469,238.528 221.211 C 238.221 220.675,239.576 219.800,240.050 220.229 C 240.220 220.382,240.233 220.288,240.079 220.020 C 239.822 219.573,240.284 219.346,241.142 219.495 C 241.319 219.525,241.353 219.370,241.217 219.150 C 240.991 218.784,241.516 218.575,242.314 218.713 C 242.491 218.744,242.525 218.589,242.389 218.369 C 242.153 217.987,242.718 217.786,243.555 217.955 C 243.770 217.998,243.814 217.903,243.654 217.742 C 243.251 217.340,245.648 215.935,246.178 216.263 C 246.454 216.433,246.492 216.344,246.285 216.010 C 246.051 215.631,246.145 215.561,246.636 215.749 C 247.088 215.923,247.215 215.859,247.027 215.554 C 246.838 215.249,246.965 215.185,247.417 215.359 C 247.869 215.532,247.996 215.468,247.808 215.164 C 247.619 214.859,247.747 214.795,248.198 214.968 C 248.650 215.142,248.778 215.078,248.589 214.773 C 248.401 214.468,248.528 214.404,248.980 214.578 C 249.348 214.719,249.554 214.680,249.437 214.490 C 249.158 214.039,252.267 212.797,252.820 213.139 C 253.075 213.296,253.134 213.221,252.967 212.951 C 252.708 212.532,253.249 212.346,254.586 212.394 C 254.852 212.404,254.973 212.256,254.856 212.065 C 254.659 211.748,255.323 211.569,256.539 211.613 C 256.805 211.623,256.909 211.447,256.771 211.222 C 256.612 210.965,256.830 210.896,257.361 211.035 C 257.901 211.176,258.112 211.106,257.947 210.840 C 257.783 210.573,257.993 210.503,258.533 210.644 C 259.073 210.785,259.284 210.715,259.119 210.449 C 258.955 210.183,259.165 210.112,259.705 210.254 C 260.245 210.395,260.456 210.325,260.291 210.058 C 260.126 209.792,260.337 209.722,260.877 209.863 C 261.341 209.984,261.635 209.945,261.530 209.777 C 261.286 209.382,263.621 208.907,264.163 209.242 C 264.420 209.400,264.456 209.305,264.260 208.988 C 264.024 208.606,264.200 208.529,264.969 208.676 C 265.532 208.784,265.905 208.730,265.798 208.557 C 265.533 208.130,268.188 207.661,268.785 208.029 C 269.108 208.229,269.160 208.161,268.948 207.816 C 268.712 207.434,268.887 207.357,269.657 207.504 C 270.283 207.624,270.586 207.548,270.438 207.309 C 270.290 207.070,270.593 206.994,271.219 207.113 C 271.838 207.232,272.148 207.156,272.003 206.922 C 271.857 206.686,272.234 206.605,272.971 206.713 C 273.634 206.810,274.102 206.768,274.010 206.619 C 273.780 206.246,276.897 205.779,277.428 206.107 C 277.700 206.275,277.742 206.188,277.544 205.867 C 277.308 205.486,277.526 205.407,278.440 205.541 C 279.103 205.638,279.577 205.606,279.492 205.468 C 279.249 205.076,286.198 203.780,286.742 204.116 C 287.039 204.299,287.131 204.258,286.978 204.010 C 286.679 203.525,290.007 202.938,290.684 203.357 C 290.982 203.541,291.030 203.464,290.825 203.133 C 290.590 202.752,290.807 202.672,291.721 202.807 C 292.429 202.910,292.832 202.830,292.697 202.611 C 292.562 202.392,292.973 202.313,293.695 202.419 C 294.370 202.518,294.922 202.433,294.922 202.231 C 294.922 202.028,295.356 201.945,295.887 202.046 C 296.464 202.157,296.755 202.076,296.612 201.844 C 296.466 201.608,296.843 201.526,297.580 201.635 C 298.244 201.732,298.709 201.687,298.615 201.533 C 298.370 201.138,300.332 200.703,300.897 201.027 C 301.156 201.176,301.241 201.158,301.087 200.987 C 300.786 200.653,302.717 198.959,303.215 199.121 C 303.380 199.175,303.495 199.087,303.469 198.926 C 303.336 198.081,303.554 196.852,303.809 197.010 C 303.970 197.109,304.129 196.741,304.162 196.192 C 304.205 195.471,304.125 195.346,303.875 195.741 C 303.615 196.151,303.526 196.058,303.522 195.371 C 303.518 194.856,302.939 193.877,302.201 193.138 C 301.477 192.415,300.994 191.701,301.126 191.552 C 301.259 191.403,301.166 191.396,300.919 191.537 C 300.251 191.919,298.017 191.380,298.309 190.908 C 298.456 190.670,298.367 190.623,298.092 190.793 C 297.548 191.129,292.138 190.240,292.376 189.854 C 292.465 189.711,291.994 189.674,291.330 189.772 C 290.622 189.875,290.219 189.795,290.354 189.576 C 290.489 189.358,290.085 189.277,289.377 189.381 C 288.463 189.515,288.246 189.436,288.481 189.055 C 288.675 188.742,288.637 188.647,288.382 188.805 C 287.739 189.202,284.356 188.627,284.640 188.169 C 284.776 187.948,284.696 187.888,284.459 188.034 C 283.916 188.369,280.813 187.890,281.050 187.508 C 281.147 187.351,280.792 187.305,280.262 187.407 C 279.678 187.518,279.297 187.410,279.297 187.132 C 279.297 186.879,279.132 186.775,278.930 186.899 C 278.323 187.274,275.379 186.663,275.653 186.219 C 275.792 185.995,275.712 185.934,275.475 186.081 C 274.932 186.416,271.829 185.937,272.066 185.555 C 272.163 185.398,271.782 185.357,271.219 185.465 C 270.593 185.584,270.290 185.508,270.438 185.269 C 270.586 185.030,270.283 184.954,269.657 185.074 C 269.031 185.194,268.728 185.118,268.875 184.879 C 269.023 184.640,268.720 184.564,268.094 184.683 C 267.468 184.803,267.165 184.727,267.313 184.488 C 267.461 184.249,267.158 184.173,266.532 184.293 C 265.762 184.440,265.587 184.363,265.823 183.981 C 266.032 183.642,265.983 183.568,265.676 183.758 C 265.006 184.172,262.831 183.616,263.143 183.111 C 263.304 182.850,263.216 182.807,262.909 182.997 C 262.351 183.341,258.153 182.038,258.421 181.604 C 258.517 181.449,258.216 181.422,257.752 181.543 C 257.124 181.707,256.990 181.633,257.226 181.251 C 257.441 180.904,257.391 180.833,257.071 181.030 C 256.431 181.426,250.325 178.937,250.650 178.413 C 250.797 178.174,250.714 178.121,250.450 178.284 C 249.905 178.621,246.030 176.591,246.321 176.121 C 246.433 175.939,246.223 175.906,245.855 176.047 C 245.364 176.236,245.270 176.166,245.504 175.787 C 245.711 175.453,245.672 175.364,245.396 175.534 C 244.866 175.862,242.470 174.457,242.872 174.055 C 243.033 173.894,242.988 173.798,242.773 173.842 C 241.937 174.011,241.372 173.810,241.608 173.428 C 241.744 173.208,241.710 173.053,241.533 173.083 C 240.701 173.228,240.214 173.005,240.467 172.596 C 240.625 172.340,240.576 172.250,240.353 172.388 C 239.855 172.695,237.411 170.923,237.798 170.535 C 237.956 170.377,237.910 170.299,237.695 170.363 C 237.032 170.559,235.509 169.518,235.792 169.061 C 235.939 168.822,235.882 168.738,235.664 168.873 C 235.200 169.160,231.938 166.482,232.212 166.040 C 232.445 165.662,230.688 163.974,230.381 164.280 C 230.037 164.624,226.176 159.684,226.447 159.246 C 226.577 159.036,226.489 158.984,226.252 159.130 C 225.748 159.441,224.894 158.063,225.307 157.606 C 225.460 157.436,225.404 157.399,225.183 157.525 C 224.728 157.782,222.917 155.340,222.917 154.471 C 222.917 154.160,222.829 153.994,222.723 154.100 C 222.387 154.436,221.064 151.927,221.341 151.479 C 221.486 151.244,221.433 151.158,221.223 151.288 C 220.737 151.588,219.036 148.141,219.389 147.570 C 219.558 147.296,219.468 147.259,219.135 147.465 C 218.756 147.699,218.686 147.605,218.874 147.114 C 219.016 146.745,218.975 146.541,218.784 146.659 C 218.345 146.930,217.500 144.584,217.838 144.035 C 217.978 143.809,217.902 143.745,217.667 143.891 C 217.155 144.207,216.633 142.769,217.027 142.131 C 217.195 141.859,217.138 141.781,216.885 141.938 C 216.373 142.254,215.851 140.816,216.246 140.178 C 216.433 139.875,216.355 139.829,216.014 140.040 C 215.633 140.276,215.558 140.142,215.722 139.514 C 215.864 138.974,215.793 138.763,215.527 138.928 C 215.261 139.092,215.190 138.882,215.332 138.342 C 215.473 137.802,215.403 137.591,215.136 137.756 C 214.870 137.920,214.800 137.710,214.941 137.170 C 215.062 136.706,215.016 136.417,214.839 136.526 C 214.409 136.792,213.927 134.520,214.289 133.934 C 214.458 133.660,214.406 133.577,214.162 133.728 C 213.667 134.034,212.700 130.357,213.041 129.467 C 213.190 129.081,213.114 128.964,212.830 129.139 C 212.527 129.326,212.449 129.089,212.582 128.390 C 212.701 127.771,212.625 127.462,212.391 127.606 C 212.155 127.752,212.073 127.376,212.182 126.639 C 212.285 125.931,212.205 125.527,211.986 125.662 C 211.768 125.797,211.687 125.393,211.791 124.685 C 211.894 123.985,211.813 123.574,211.599 123.707 C 211.384 123.840,211.298 123.356,211.393 122.542 C 211.486 121.747,211.400 121.244,211.194 121.372 C 210.989 121.499,210.909 121.072,211.010 120.389 C 211.107 119.725,211.065 119.257,210.916 119.349 C 210.543 119.580,210.062 115.703,210.397 115.161 C 210.555 114.905,210.492 114.831,210.245 114.984 C 209.736 115.299,209.141 111.242,209.589 110.516 C 209.791 110.190,209.725 110.136,209.383 110.347 C 209.001 110.583,208.923 110.362,209.060 109.430 C 209.159 108.755,209.074 108.203,208.872 108.203 C 208.670 108.203,208.581 107.685,208.674 107.052 C 208.772 106.382,208.687 105.997,208.471 106.131 C 208.252 106.266,208.171 105.862,208.275 105.154 C 208.378 104.454,208.298 104.043,208.083 104.176 C 207.868 104.309,207.782 103.825,207.877 103.010 C 207.967 102.244,207.917 101.693,207.768 101.786 C 207.379 102.026,206.904 98.178,207.253 97.614 C 207.424 97.337,207.378 97.247,207.141 97.393 C 206.669 97.685,206.078 93.954,206.491 93.286 C 206.644 93.039,206.587 92.956,206.360 93.096 C 205.887 93.388,205.296 89.657,205.709 88.989 C 205.884 88.706,205.802 88.661,205.477 88.862 C 205.095 89.098,205.016 88.881,205.150 87.967 C 205.254 87.259,205.173 86.855,204.955 86.990 C 204.737 87.125,204.656 86.721,204.760 86.014 C 204.857 85.350,204.793 84.896,204.617 85.005 C 204.441 85.113,204.297 84.999,204.297 84.750 C 204.297 83.564,202.847 81.487,201.254 80.391 C 200.283 79.723,199.614 79.379,199.767 79.627 M200.690 127.790 C 200.600 128.404,200.690 128.906,200.891 128.906 C 201.092 128.906,201.143 129.360,201.003 129.916 C 200.821 130.640,200.880 130.844,201.213 130.639 C 201.541 130.436,201.618 130.654,201.478 131.387 C 201.369 131.956,201.452 132.422,201.662 132.422 C 201.872 132.422,201.952 132.773,201.840 133.203 C 201.728 133.633,201.815 133.984,202.035 133.984 C 202.255 133.984,202.343 134.336,202.231 134.766 C 202.118 135.195,202.206 135.547,202.426 135.547 C 202.646 135.547,202.734 135.898,202.621 136.328 C 202.509 136.758,202.597 137.109,202.817 137.109 C 203.036 137.109,203.124 137.461,203.012 137.891 C 202.883 138.384,202.961 138.578,203.223 138.416 C 203.489 138.251,203.560 138.462,203.418 139.001 C 203.297 139.465,203.376 139.844,203.594 139.844 C 203.812 139.844,203.889 140.107,203.765 140.430 C 203.641 140.752,203.718 141.016,203.936 141.016 C 204.153 141.016,204.287 141.235,204.232 141.504 C 204.178 141.772,204.354 142.391,204.624 142.879 C 204.893 143.367,205.008 143.938,204.878 144.149 C 204.748 144.359,204.846 144.531,205.097 144.531 C 205.347 144.531,205.451 144.795,205.327 145.117 C 205.204 145.439,205.292 145.703,205.523 145.703 C 205.754 145.703,205.842 145.967,205.718 146.289 C 205.594 146.611,205.682 146.875,205.913 146.875 C 206.145 146.875,206.229 147.148,206.101 147.481 C 205.953 147.867,206.027 147.989,206.305 147.817 C 206.567 147.655,206.670 147.763,206.562 148.087 C 206.463 148.383,206.626 148.870,206.925 149.168 C 207.223 149.466,207.371 149.960,207.254 150.266 C 207.118 150.618,207.206 150.719,207.493 150.542 C 207.795 150.355,207.862 150.478,207.696 150.912 C 207.559 151.270,207.627 151.563,207.848 151.563 C 208.069 151.563,208.150 151.723,208.028 151.920 C 207.907 152.116,207.963 152.336,208.152 152.408 C 208.665 152.603,210.940 157.289,210.659 157.570 C 210.526 157.703,210.651 157.813,210.938 157.813 C 211.224 157.813,211.344 157.927,211.204 158.067 C 211.064 158.207,211.201 158.514,211.508 158.750 C 211.815 158.987,212.120 159.429,212.186 159.733 C 212.251 160.037,212.619 160.615,213.003 161.017 C 213.386 161.419,213.596 161.917,213.468 162.124 C 213.340 162.331,213.413 162.500,213.630 162.500 C 214.117 162.500,216.445 165.822,216.196 166.161 C 216.097 166.296,216.121 166.330,216.250 166.237 C 216.379 166.143,217.517 167.350,218.779 168.919 C 220.041 170.487,222.616 173.235,224.501 175.024 C 226.387 176.814,227.666 178.128,227.344 177.944 C 226.994 177.744,226.889 177.753,227.083 177.965 C 227.262 178.160,227.526 178.327,227.669 178.334 C 228.363 178.371,229.682 179.381,229.474 179.717 C 229.345 179.926,229.384 180.065,229.561 180.026 C 230.161 179.892,231.247 180.548,231.023 180.910 C 230.901 181.108,230.946 181.222,231.123 181.164 C 231.576 181.017,234.375 182.799,234.375 183.235 C 234.375 183.432,234.507 183.573,234.668 183.547 C 235.487 183.418,235.954 183.642,235.705 184.045 C 235.535 184.319,235.597 184.390,235.863 184.226 C 236.103 184.077,236.658 184.314,237.095 184.751 C 237.533 185.189,237.935 185.521,237.988 185.490 C 238.334 185.287,239.813 186.062,239.634 186.352 C 239.512 186.549,239.672 186.610,239.989 186.489 C 240.305 186.367,240.915 186.618,241.343 187.047 C 241.772 187.475,242.225 187.723,242.350 187.598 C 242.476 187.472,242.578 187.585,242.578 187.849 C 242.578 188.112,242.754 188.219,242.969 188.086 C 243.184 187.953,243.359 188.025,243.359 188.246 C 243.359 188.467,243.652 188.535,244.009 188.398 C 244.443 188.231,244.567 188.299,244.380 188.601 C 244.202 188.888,244.304 188.975,244.656 188.840 C 244.962 188.723,245.456 188.871,245.754 189.169 C 246.052 189.467,246.539 189.630,246.835 189.531 C 247.159 189.424,247.266 189.526,247.104 189.789 C 246.938 190.058,247.047 190.144,247.390 190.012 C 247.696 189.895,248.190 190.043,248.488 190.341 C 248.786 190.639,249.273 190.802,249.570 190.703 C 249.893 190.595,250.001 190.698,249.839 190.960 C 249.667 191.239,249.789 191.313,250.175 191.165 C 250.508 191.037,250.781 191.107,250.781 191.321 C 250.781 191.535,251.001 191.702,251.270 191.692 C 252.495 191.646,253.153 191.826,252.952 192.151 C 252.832 192.346,253.113 192.406,253.576 192.285 C 254.116 192.144,254.327 192.214,254.162 192.480 C 253.997 192.747,254.208 192.817,254.748 192.675 C 255.288 192.534,255.499 192.604,255.334 192.871 C 255.169 193.137,255.380 193.207,255.920 193.066 C 256.460 192.925,256.670 192.995,256.506 193.261 C 256.341 193.528,256.552 193.598,257.092 193.457 C 257.632 193.315,257.842 193.386,257.678 193.652 C 257.516 193.914,257.710 193.992,258.203 193.863 C 258.633 193.751,258.984 193.850,258.984 194.083 C 258.984 194.316,259.248 194.406,259.570 194.282 C 259.893 194.158,260.156 194.246,260.156 194.477 C 260.156 194.708,260.420 194.796,260.742 194.673 C 261.064 194.549,261.328 194.626,261.328 194.844 C 261.328 195.061,261.680 195.147,262.109 195.035 C 262.563 194.916,262.891 195.023,262.891 195.290 C 262.891 195.543,263.058 195.646,263.263 195.519 C 263.763 195.210,265.625 195.697,265.625 196.136 C 265.625 196.328,265.351 196.484,265.016 196.484 C 264.658 196.484,264.521 196.669,264.683 196.932 C 264.874 197.240,264.639 197.318,263.925 197.181 C 263.356 197.072,262.891 197.155,262.891 197.365 C 262.891 197.575,262.539 197.655,262.109 197.543 C 261.680 197.431,261.328 197.519,261.328 197.738 C 261.328 197.958,260.976 198.046,260.546 197.934 C 260.054 197.805,259.860 197.883,260.021 198.145 C 260.186 198.411,259.976 198.481,259.436 198.340 C 258.973 198.219,258.594 198.300,258.594 198.520 C 258.594 198.739,258.242 198.827,257.812 198.715 C 257.320 198.586,257.125 198.664,257.287 198.926 C 257.452 199.192,257.241 199.263,256.702 199.122 C 256.238 199.000,255.859 199.079,255.859 199.297 C 255.859 199.515,255.596 199.592,255.273 199.468 C 254.951 199.344,254.688 199.432,254.688 199.663 C 254.688 199.895,254.424 199.982,254.102 199.859 C 253.779 199.735,253.516 199.819,253.516 200.045 C 253.516 200.271,253.297 200.383,253.031 200.294 C 252.764 200.205,252.302 200.376,252.004 200.675 C 251.706 200.973,251.221 201.124,250.926 201.011 C 250.632 200.898,250.391 200.991,250.391 201.217 C 250.391 201.443,250.172 201.555,249.906 201.466 C 249.639 201.377,249.177 201.548,248.879 201.847 C 248.581 202.145,248.057 202.281,247.715 202.150 C 247.374 202.019,247.224 202.041,247.382 202.199 C 247.719 202.536,245.379 203.603,244.922 203.321 C 244.752 203.216,244.505 203.410,244.374 203.754 C 244.237 204.110,243.884 204.282,243.551 204.154 C 243.231 204.031,242.969 204.111,242.969 204.332 C 242.969 204.553,242.793 204.625,242.578 204.492 C 242.363 204.359,242.188 204.447,242.188 204.688 C 242.188 204.928,242.012 205.016,241.797 204.883 C 241.582 204.750,241.406 204.838,241.406 205.078 C 241.406 205.318,241.230 205.406,241.016 205.273 C 240.801 205.141,240.625 205.214,240.625 205.436 C 240.625 205.658,240.098 206.112,239.453 206.445 C 238.809 206.779,238.281 206.925,238.281 206.771 C 238.281 206.617,238.062 206.779,237.793 207.130 C 237.524 207.482,237.061 207.823,236.764 207.889 C 236.466 207.954,235.785 208.400,235.250 208.879 C 234.715 209.359,234.141 209.667,233.976 209.565 C 233.811 209.463,233.565 209.667,233.430 210.019 C 233.295 210.371,233.073 210.547,232.936 210.410 C 232.799 210.273,232.440 210.515,232.137 210.947 C 231.835 211.378,231.423 211.631,231.223 211.507 C 231.023 211.383,230.859 211.441,230.859 211.635 C 230.859 211.828,229.937 212.757,228.809 213.698 C 227.681 214.638,227.005 215.061,227.308 214.638 C 227.610 214.214,227.122 214.692,226.223 215.700 C 225.323 216.708,223.665 218.378,222.537 219.411 C 221.409 220.444,220.843 221.030,221.278 220.713 C 221.714 220.396,221.436 220.836,220.660 221.690 C 219.884 222.544,218.542 224.156,217.677 225.272 C 216.812 226.389,215.968 227.180,215.802 227.030 C 215.636 226.880,215.625 226.976,215.779 227.243 C 215.940 227.523,215.654 228.131,215.102 228.684 C 214.576 229.210,214.240 229.735,214.355 229.850 C 214.471 229.965,214.277 230.170,213.925 230.305 C 213.574 230.440,213.379 230.702,213.493 230.886 C 213.607 231.071,213.342 231.579,212.905 232.017 C 212.467 232.455,212.135 232.856,212.167 232.910 C 212.397 233.303,211.577 234.724,211.240 234.516 C 210.970 234.349,210.931 234.439,211.132 234.765 C 211.329 235.082,211.194 235.460,210.776 235.766 C 210.406 236.036,210.125 236.405,210.151 236.586 C 210.228 237.118,208.489 240.625,208.149 240.625 C 207.977 240.625,207.949 240.918,208.086 241.275 C 208.268 241.747,208.194 241.837,207.819 241.605 C 207.492 241.404,207.395 241.437,207.555 241.696 C 207.880 242.221,206.880 244.640,206.496 244.257 C 206.338 244.099,206.316 244.249,206.447 244.590 C 206.578 244.932,206.442 245.456,206.143 245.754 C 205.845 246.052,205.674 246.514,205.763 246.781 C 205.852 247.047,205.740 247.266,205.514 247.266 C 205.288 247.266,205.215 247.558,205.352 247.916 C 205.519 248.350,205.451 248.473,205.149 248.286 C 204.853 248.103,204.777 248.216,204.929 248.613 C 205.057 248.946,204.973 249.219,204.742 249.219 C 204.510 249.219,204.423 249.482,204.546 249.805 C 204.670 250.127,204.582 250.391,204.351 250.391 C 204.120 250.391,204.032 250.654,204.156 250.977 C 204.279 251.299,204.202 251.563,203.985 251.563 C 203.767 251.563,203.688 251.942,203.809 252.405 C 203.950 252.945,203.880 253.155,203.614 252.990 C 203.352 252.828,203.274 253.023,203.402 253.515 C 203.515 253.945,203.416 254.297,203.183 254.297 C 202.950 254.297,202.860 254.561,202.984 254.883 C 203.107 255.205,203.030 255.469,202.813 255.469 C 202.595 255.469,202.509 255.820,202.621 256.250 C 202.734 256.680,202.646 257.031,202.426 257.031 C 202.206 257.031,202.125 257.410,202.247 257.874 C 202.382 258.390,202.314 258.621,202.071 258.471 C 201.829 258.321,201.747 258.600,201.860 259.192 C 201.961 259.722,201.864 260.156,201.645 260.156 C 201.425 260.156,201.337 260.508,201.449 260.938 C 201.562 261.367,201.482 261.719,201.272 261.719 C 201.061 261.719,200.974 262.158,201.076 262.695 C 201.179 263.232,201.109 263.672,200.921 263.672 C 200.732 263.672,200.580 264.243,200.582 264.941 C 200.585 265.811,200.401 266.211,200.000 266.211 C 199.588 266.211,199.431 265.835,199.472 264.941 C 199.503 264.243,199.351 263.672,199.133 263.672 C 198.915 263.672,198.820 263.238,198.921 262.707 C 199.033 262.123,198.952 261.838,198.715 261.984 C 198.475 262.132,198.401 261.825,198.522 261.191 C 198.631 260.622,198.548 260.156,198.338 260.156 C 198.128 260.156,198.048 259.805,198.160 259.375 C 198.272 258.945,198.185 258.594,197.965 258.594 C 197.745 258.594,197.657 258.242,197.769 257.813 C 197.882 257.383,197.794 257.031,197.574 257.031 C 197.354 257.031,197.267 256.679,197.379 256.249 C 197.508 255.757,197.429 255.563,197.168 255.725 C 196.901 255.889,196.831 255.679,196.972 255.139 C 197.093 254.676,197.013 254.297,196.793 254.297 C 196.573 254.297,196.485 253.945,196.598 253.515 C 196.726 253.023,196.648 252.828,196.386 252.990 C 196.120 253.155,196.050 252.944,196.191 252.404 C 196.332 251.864,196.262 251.654,195.996 251.818 C 195.729 251.983,195.659 251.773,195.800 251.233 C 195.921 250.770,195.842 250.391,195.625 250.391 C 195.407 250.391,195.334 250.118,195.462 249.784 C 195.612 249.391,195.537 249.275,195.246 249.455 C 194.942 249.643,194.869 249.462,195.019 248.889 C 195.160 248.349,195.090 248.138,194.824 248.303 C 194.558 248.467,194.487 248.257,194.629 247.717 C 194.750 247.253,194.690 246.972,194.495 247.093 C 194.172 247.293,194.103 247.094,193.984 245.605 C 193.963 245.337,193.718 244.877,193.440 244.584 C 193.161 244.290,193.000 243.852,193.080 243.610 C 193.161 243.369,192.983 242.927,192.685 242.629 C 192.387 242.331,192.239 241.837,192.356 241.531 C 192.491 241.179,192.403 241.077,192.117 241.255 C 191.812 241.443,191.748 241.316,191.921 240.864 C 192.074 240.466,192.022 240.291,191.792 240.432 C 191.426 240.659,191.341 240.489,191.250 239.355 C 191.229 239.087,190.990 238.633,190.719 238.347 C 190.449 238.062,190.327 237.666,190.449 237.469 C 190.571 237.271,190.475 237.109,190.234 237.109 C 189.994 237.109,189.895 236.952,190.014 236.760 C 190.133 236.567,189.949 236.302,189.606 236.170 C 189.238 236.030,189.077 235.683,189.213 235.328 C 189.340 234.996,189.283 234.825,189.086 234.946 C 188.732 235.166,188.046 233.696,188.214 233.076 C 188.261 232.899,188.133 232.858,187.928 232.984 C 187.563 233.210,186.871 231.756,187.042 231.123 C 187.090 230.946,186.949 230.913,186.728 231.049 C 186.508 231.185,186.328 231.110,186.328 230.882 C 186.328 230.023,186.258 229.875,185.706 229.566 C 185.395 229.391,185.230 229.102,185.341 228.923 C 185.452 228.744,185.269 228.492,184.934 228.364 C 184.599 228.236,184.435 227.953,184.569 227.737 C 184.702 227.521,184.646 227.344,184.444 227.344 C 184.242 227.344,183.585 226.698,182.983 225.910 C 182.382 225.121,182.141 224.612,182.449 224.778 C 182.756 224.944,182.435 224.608,181.735 224.032 C 181.034 223.456,180.564 222.818,180.689 222.615 C 180.815 222.412,180.772 222.295,180.595 222.354 C 180.418 222.413,178.869 220.991,177.153 219.195 C 175.437 217.399,172.768 214.912,171.222 213.668 C 169.676 212.424,168.531 211.273,168.678 211.110 C 168.825 210.946,168.727 210.938,168.460 211.091 C 168.180 211.252,167.572 210.967,167.019 210.414 C 166.493 209.888,165.992 209.529,165.905 209.616 C 165.818 209.702,165.304 209.376,164.762 208.891 C 164.221 208.405,163.534 207.954,163.236 207.889 C 162.939 207.823,162.476 207.482,162.207 207.130 C 161.938 206.779,161.719 206.617,161.719 206.771 C 161.719 206.925,161.191 206.779,160.547 206.445 C 159.902 206.112,159.375 205.658,159.375 205.436 C 159.375 205.214,159.199 205.141,158.984 205.273 C 158.770 205.406,158.594 205.318,158.594 205.078 C 158.594 204.838,158.418 204.750,158.203 204.883 C 157.988 205.016,157.813 204.928,157.813 204.688 C 157.813 204.447,157.653 204.350,157.457 204.470 C 156.955 204.781,155.820 204.286,156.077 203.870 C 156.195 203.680,155.989 203.640,155.620 203.782 C 155.169 203.955,155.041 203.891,155.230 203.586 C 155.407 203.300,155.306 203.212,154.953 203.347 C 154.648 203.465,154.154 203.317,153.855 203.018 C 153.557 202.720,153.071 202.557,152.774 202.656 C 152.477 202.755,152.345 202.657,152.480 202.439 C 152.616 202.220,152.508 202.049,152.242 202.059 C 150.988 202.104,150.365 201.919,150.583 201.567 C 150.720 201.346,150.563 201.280,150.216 201.413 C 149.882 201.541,149.609 201.489,149.609 201.297 C 149.609 201.105,149.216 200.918,148.736 200.882 C 148.256 200.846,147.808 200.651,147.741 200.449 C 147.674 200.248,147.248 200.180,146.795 200.298 C 146.238 200.444,146.061 200.369,146.248 200.066 C 146.428 199.776,146.312 199.700,145.919 199.851 C 145.585 199.979,145.312 199.933,145.312 199.749 C 145.311 199.565,144.748 199.394,144.059 199.368 C 143.371 199.343,142.748 199.142,142.674 198.922 C 142.601 198.701,142.170 198.617,141.717 198.736 C 141.192 198.873,140.987 198.800,141.150 198.535 C 141.312 198.274,141.118 198.195,140.626 198.324 C 140.196 198.437,139.844 198.357,139.844 198.147 C 139.844 197.936,139.378 197.854,138.809 197.962 C 138.144 198.090,137.865 198.013,138.028 197.749 C 138.187 197.493,137.988 197.416,137.501 197.543 C 137.071 197.655,136.719 197.575,136.719 197.365 C 136.719 197.155,136.253 197.072,135.684 197.181 C 134.970 197.318,134.735 197.240,134.926 196.932 C 135.100 196.649,134.897 196.484,134.375 196.484 C 133.888 196.484,133.654 196.313,133.806 196.067 C 133.947 195.838,134.309 195.744,134.610 195.860 C 134.910 195.975,135.156 195.878,135.156 195.645 C 135.156 195.412,135.508 195.313,135.938 195.426 C 136.367 195.538,136.719 195.450,136.719 195.230 C 136.719 195.011,137.153 194.914,137.683 195.015 C 138.275 195.128,138.554 195.046,138.404 194.804 C 138.254 194.561,138.485 194.493,139.001 194.628 C 139.465 194.750,139.844 194.669,139.844 194.449 C 139.844 194.229,140.196 194.142,140.626 194.254 C 141.118 194.383,141.312 194.304,141.150 194.043 C 140.986 193.776,141.196 193.706,141.736 193.847 C 142.199 193.968,142.578 193.888,142.578 193.668 C 142.578 193.448,142.930 193.360,143.360 193.473 C 143.852 193.601,144.047 193.523,143.885 193.261 C 143.720 192.995,143.930 192.925,144.470 193.066 C 144.933 193.187,145.313 193.108,145.313 192.890 C 145.313 192.673,145.576 192.596,145.898 192.719 C 146.221 192.843,146.484 192.755,146.484 192.524 C 146.484 192.293,146.757 192.209,147.091 192.337 C 147.484 192.487,147.600 192.412,147.420 192.121 C 147.232 191.817,147.413 191.744,147.986 191.894 C 148.450 192.015,148.731 191.955,148.610 191.760 C 148.411 191.437,148.609 191.369,150.098 191.250 C 150.366 191.229,150.828 190.981,151.125 190.700 C 151.421 190.419,151.913 190.285,152.219 190.403 C 152.562 190.534,152.672 190.449,152.505 190.179 C 152.343 189.917,152.450 189.814,152.774 189.922 C 153.071 190.021,153.557 189.858,153.855 189.560 C 154.154 189.262,154.648 189.114,154.953 189.231 C 155.306 189.366,155.407 189.278,155.230 188.992 C 155.043 188.689,155.166 188.622,155.600 188.789 C 155.957 188.926,156.250 188.857,156.250 188.637 C 156.250 188.416,156.407 188.332,156.600 188.451 C 156.792 188.570,157.057 188.386,157.189 188.043 C 157.321 187.700,157.676 187.514,157.979 187.630 C 158.281 187.746,158.633 187.570,158.760 187.239 C 158.894 186.890,159.244 186.735,159.594 186.869 C 159.926 186.996,160.097 186.939,159.976 186.742 C 159.763 186.398,161.215 185.701,161.816 185.860 C 161.978 185.903,162.109 185.780,162.109 185.587 C 162.109 185.275,167.486 181.711,167.969 181.704 C 168.076 181.702,168.935 180.989,169.878 180.119 C 170.821 179.248,171.748 178.632,171.939 178.750 C 172.129 178.868,172.237 178.807,172.178 178.615 C 172.119 178.422,173.313 177.190,174.833 175.877 C 176.352 174.563,178.076 172.906,178.664 172.193 C 179.252 171.481,179.606 171.162,179.452 171.484 C 179.288 171.828,179.319 171.936,179.527 171.745 C 179.723 171.566,179.883 171.299,179.883 171.153 C 179.883 170.693,183.691 166.016,184.065 166.016 C 184.261 166.016,184.320 165.852,184.196 165.652 C 184.073 165.452,184.365 165.012,184.846 164.675 C 185.327 164.338,185.584 164.063,185.416 164.063 C 185.249 164.063,185.418 163.545,185.792 162.912 C 186.166 162.279,186.659 161.868,186.888 161.998 C 187.117 162.128,187.180 162.096,187.027 161.927 C 186.687 161.550,187.764 159.375,188.291 159.375 C 188.501 159.375,188.637 159.243,188.594 159.082 C 188.420 158.421,189.148 157.038,189.542 157.281 C 189.790 157.435,189.852 157.361,189.693 157.103 C 189.380 156.597,190.462 154.297,191.013 154.297 C 191.216 154.297,191.269 154.004,191.132 153.647 C 190.951 153.175,191.025 153.084,191.400 153.317 C 191.732 153.521,191.824 153.485,191.657 153.215 C 191.363 152.738,192.144 150.781,192.629 150.781 C 192.802 150.781,192.852 150.540,192.739 150.246 C 192.626 149.951,192.777 149.466,193.075 149.168 C 193.374 148.870,193.552 148.428,193.471 148.186 C 193.390 147.945,193.566 147.505,193.862 147.210 C 194.157 146.914,194.326 146.455,194.237 146.188 C 194.148 145.921,194.260 145.703,194.486 145.703 C 194.712 145.703,194.796 145.439,194.673 145.117 C 194.549 144.795,194.637 144.531,194.868 144.531 C 195.099 144.531,195.187 144.268,195.063 143.945 C 194.939 143.623,195.027 143.359,195.258 143.359 C 195.490 143.359,195.577 143.096,195.454 142.773 C 195.330 142.451,195.418 142.188,195.649 142.188 C 195.880 142.188,195.968 141.924,195.844 141.602 C 195.721 141.279,195.809 141.016,196.040 141.016 C 196.271 141.016,196.359 140.752,196.235 140.430 C 196.111 140.107,196.188 139.844,196.406 139.844 C 196.624 139.844,196.703 139.465,196.582 139.001 C 196.427 138.410,196.501 138.245,196.829 138.448 C 197.170 138.659,197.224 138.449,197.029 137.670 C 196.852 136.964,196.900 136.688,197.172 136.856 C 197.429 137.015,197.506 136.816,197.379 136.329 C 197.267 135.899,197.354 135.547,197.574 135.547 C 197.794 135.547,197.882 135.195,197.769 134.766 C 197.657 134.336,197.745 133.984,197.965 133.984 C 198.185 133.984,198.272 133.633,198.160 133.203 C 198.048 132.773,198.128 132.422,198.338 132.422 C 198.548 132.422,198.636 131.982,198.533 131.445 C 198.430 130.908,198.526 130.469,198.746 130.469 C 198.966 130.469,199.054 130.117,198.941 129.688 C 198.829 129.258,198.917 128.906,199.137 128.906 C 199.356 128.906,199.445 128.557,199.333 128.131 C 199.034 126.987,199.472 126.144,200.217 126.429 C 200.661 126.600,200.804 127.012,200.690 127.790 M169.922 164.185 C 169.922 164.252,169.351 164.823,168.652 165.454 L 167.383 166.602 168.530 165.332 C 169.600 164.149,169.922 163.883,169.922 164.185 M176.172 217.773 C 176.901 218.525,177.585 219.141,177.692 219.141 C 177.800 219.141,177.291 218.525,176.563 217.773 C 175.834 217.021,175.149 216.406,175.042 216.406 C 174.935 216.406,175.443 217.021,176.172 217.773 " stroke="none" fill="#f4b324" fill-rule="evenodd"></path><path id="path2" d="M196.641 79.374 C 194.653 81.207,193.782 82.653,193.276 84.961 C 193.087 85.820,192.752 87.227,192.531 88.086 C 192.309 88.945,191.974 90.615,191.785 91.797 C 191.596 92.979,191.250 94.912,191.016 96.094 C 190.781 97.275,190.430 99.209,190.234 100.391 C 190.039 101.572,189.686 103.506,189.449 104.688 C 189.212 105.869,188.868 107.979,188.684 109.375 C 188.500 110.771,188.143 112.705,187.891 113.672 C 187.638 114.639,187.287 116.572,187.109 117.969 C 186.932 119.365,186.582 121.299,186.332 122.266 C 186.083 123.232,185.741 124.990,185.574 126.172 C 185.406 127.354,184.967 129.287,184.596 130.469 C 184.226 131.650,183.750 133.320,183.537 134.180 C 182.841 136.991,182.390 138.449,181.665 140.234 C 181.272 141.201,180.559 142.959,180.080 144.141 C 179.600 145.322,179.054 146.553,178.864 146.875 C 178.675 147.197,177.824 148.804,176.972 150.446 C 175.285 153.700,174.525 154.878,171.871 158.351 C 170.907 159.613,169.865 161.020,169.557 161.476 C 168.568 162.940,166.251 165.290,164.844 166.254 C 164.092 166.770,162.686 167.805,161.719 168.555 C 157.030 172.191,151.231 175.515,145.703 177.736 C 144.521 178.210,142.803 178.932,141.884 179.338 C 140.965 179.745,139.942 180.078,139.609 180.078 C 139.277 180.078,137.656 180.540,136.006 181.106 C 134.357 181.671,132.305 182.296,131.445 182.494 C 127.469 183.413,126.259 183.658,124.805 183.836 C 123.945 183.942,122.891 184.183,122.461 184.371 C 122.031 184.559,121.064 184.819,120.313 184.949 C 119.561 185.079,118.154 185.349,117.188 185.549 C 116.221 185.749,114.463 186.100,113.281 186.328 C 109.215 187.115,107.613 187.452,105.859 187.891 C 104.893 188.132,103.311 188.463,102.344 188.625 C 91.418 190.456,91.492 202.485,102.441 204.368 C 105.335 204.866,107.849 205.380,109.766 205.865 C 110.732 206.109,112.490 206.459,113.672 206.641 C 114.854 206.823,116.611 207.177,117.578 207.427 C 118.545 207.677,120.127 207.972,121.094 208.081 C 122.061 208.190,123.019 208.438,123.223 208.632 C 123.427 208.826,124.117 208.984,124.757 208.984 C 125.397 208.984,126.461 209.148,127.121 209.349 C 127.780 209.549,129.023 209.886,129.883 210.098 C 147.203 214.364,156.084 218.855,165.917 228.320 C 168.595 230.898,171.212 233.623,171.731 234.375 C 172.250 235.127,173.203 236.445,173.848 237.305 C 175.029 238.878,180.078 248.504,180.078 249.181 C 180.078 249.381,180.459 250.394,180.925 251.432 C 181.909 253.625,181.821 253.384,182.181 254.883 C 182.336 255.527,182.737 256.934,183.073 258.008 C 183.665 259.905,184.022 261.306,184.787 264.746 C 184.990 265.659,185.342 267.241,185.570 268.262 C 185.798 269.282,186.149 271.128,186.351 272.363 C 187.219 277.668,187.488 279.221,187.891 281.250 C 188.125 282.432,188.485 284.409,188.690 285.645 C 188.895 286.880,189.238 288.945,189.453 290.234 C 189.668 291.523,190.012 293.589,190.217 294.824 C 190.422 296.060,190.773 297.993,190.998 299.121 C 191.222 300.249,191.571 302.007,191.772 303.027 C 193.123 309.869,194.103 311.685,197.329 313.313 L 199.726 314.523 201.757 313.885 C 203.800 313.242,205.678 311.665,206.662 309.766 C 207.359 308.420,208.366 303.824,208.972 299.219 C 209.156 297.822,209.513 295.889,209.766 294.922 C 210.018 293.955,210.370 292.021,210.547 290.625 C 210.724 289.229,211.079 287.295,211.336 286.328 C 211.593 285.361,211.879 283.516,211.973 282.227 C 212.066 280.938,212.299 279.531,212.492 279.102 C 212.685 278.672,212.947 277.617,213.075 276.758 C 213.638 272.969,214.033 270.778,214.448 269.141 C 214.693 268.174,215.046 266.592,215.234 265.625 C 218.564 248.497,228.067 231.946,239.433 223.479 C 244.230 219.906,250.297 216.520,254.932 214.829 C 262.155 212.193,267.304 210.654,271.875 209.766 C 272.842 209.578,274.424 209.226,275.391 208.984 C 276.357 208.743,278.027 208.374,279.102 208.166 C 280.176 207.958,281.890 207.617,282.910 207.409 C 283.931 207.201,285.601 206.861,286.621 206.653 C 287.642 206.445,289.355 206.105,290.430 205.896 C 291.504 205.688,293.174 205.320,294.141 205.079 C 295.107 204.837,296.426 204.555,297.070 204.452 C 309.911 202.400,310.059 190.493,297.266 188.664 C 296.084 188.495,294.414 188.148,293.555 187.893 C 292.695 187.638,291.113 187.282,290.039 187.101 C 288.965 186.921,287.295 186.574,286.328 186.331 C 285.361 186.088,283.779 185.729,282.813 185.535 C 279.414 184.851,276.935 184.372,275.098 184.043 C 274.077 183.860,272.451 183.423,271.484 183.072 C 270.518 182.721,269.310 182.431,268.801 182.428 C 267.979 182.423,264.896 181.561,261.523 180.393 C 256.246 178.566,254.500 177.833,250.481 175.757 C 244.739 172.791,242.459 171.472,241.323 170.462 C 240.831 170.026,239.463 169.035,238.281 168.262 C 235.764 166.614,229.934 160.729,228.316 158.203 C 227.696 157.236,226.809 156.006,226.344 155.469 C 225.879 154.932,224.803 153.174,223.953 151.563 C 223.103 149.951,222.222 148.281,221.996 147.852 C 221.769 147.422,221.038 145.840,220.372 144.336 C 219.292 141.899,218.649 140.008,216.186 132.031 C 215.821 130.850,215.370 129.048,215.183 128.027 C 214.997 127.007,214.660 125.249,214.435 124.121 C 214.211 122.993,213.867 121.104,213.672 119.922 C 213.477 118.740,213.125 116.807,212.891 115.625 C 212.656 114.443,212.305 112.510,212.109 111.328 C 211.914 110.146,211.563 108.213,211.328 107.031 C 211.094 105.850,210.742 103.916,210.547 102.734 C 210.352 101.553,209.999 99.619,209.763 98.438 C 209.528 97.256,209.180 95.234,208.990 93.945 C 208.800 92.656,208.449 90.723,208.211 89.648 C 207.972 88.574,207.641 86.904,207.475 85.938 C 206.294 79.042,200.687 75.645,196.641 79.374 M201.790 80.098 C 204.651 81.866,204.438 81.074,209.192 107.661 C 215.510 142.994,219.416 152.803,232.208 165.463 C 244.729 177.853,258.117 182.983,297.920 190.642 C 302.300 191.484,304.490 193.643,304.168 196.802 C 303.784 200.576,302.873 200.967,286.658 204.312 C 253.293 211.196,243.218 215.512,231.137 228.099 C 219.724 239.990,214.962 252.060,209.781 282.227 C 208.101 292.007,206.130 303.027,205.430 306.547 C 204.448 311.484,199.610 313.621,196.604 310.445 C 194.765 308.502,194.775 308.539,192.017 293.164 C 187.536 268.178,187.106 265.929,185.944 261.328 C 179.428 235.544,166.198 220.272,142.816 211.544 C 137.953 209.729,128.237 207.346,112.567 204.124 C 97.710 201.069,95.703 200.137,95.703 196.289 C 95.703 192.567,97.791 191.464,109.389 189.063 C 123.278 186.188,129.282 184.834,134.625 183.373 C 162.328 175.798,178.383 160.086,185.691 133.398 C 187.206 127.869,188.024 123.694,192.170 100.346 C 195.366 82.343,195.821 80.972,199.023 79.665 C 200.181 79.193,200.375 79.223,201.790 80.098 M199.615 128.200 C 199.612 128.778,199.785 129.359,200.000 129.492 C 200.499 129.800,200.499 128.506,200.000 127.734 C 199.704 127.276,199.620 127.377,199.615 128.200 M196.708 140.067 C 196.564 140.639,196.522 141.183,196.614 141.275 C 196.706 141.367,196.899 140.974,197.042 140.402 C 197.186 139.829,197.228 139.286,197.136 139.194 C 197.044 139.101,196.851 139.494,196.708 140.067 M192.642 151.384 C 191.987 152.820,192.112 153.127,192.820 151.821 C 193.150 151.211,193.347 150.639,193.258 150.550 C 193.169 150.460,192.891 150.836,192.642 151.384 M207.450 152.148 C 207.450 152.363,207.701 152.979,208.008 153.516 C 208.315 154.053,208.566 154.316,208.566 154.102 C 208.566 153.887,208.315 153.271,208.008 152.734 C 207.701 152.197,207.450 151.934,207.450 152.148 M209.375 156.250 C 209.813 157.109,210.260 157.813,210.367 157.813 C 210.475 157.813,210.204 157.109,209.766 156.250 C 209.327 155.391,208.881 154.688,208.773 154.688 C 208.666 154.688,208.937 155.391,209.375 156.250 M185.156 164.844 C 184.697 165.488,184.410 166.016,184.517 166.016 C 184.625 166.016,185.088 165.488,185.547 164.844 C 186.006 164.199,186.293 163.672,186.186 163.672 C 186.079 163.672,185.615 164.199,185.156 164.844 M214.844 165.234 C 215.303 165.879,215.766 166.406,215.874 166.406 C 215.981 166.406,215.693 165.879,215.234 165.234 C 214.775 164.590,214.312 164.063,214.205 164.063 C 214.097 164.063,214.385 164.590,214.844 165.234 M180.872 170.410 C 179.710 171.753,179.249 172.412,179.848 171.875 C 180.933 170.902,183.396 167.969,183.128 167.969 C 183.050 167.969,182.035 169.067,180.872 170.410 M219.922 171.592 C 219.922 171.651,221.284 173.013,222.949 174.619 L 225.977 177.539 223.057 174.512 C 220.345 171.700,219.922 171.306,219.922 171.592 M173.828 177.423 C 172.057 179.102,171.671 179.572,172.852 178.613 C 174.725 177.091,177.285 174.589,176.929 174.628 C 176.835 174.638,175.439 175.896,173.828 177.423 M226.172 177.466 C 226.172 177.533,226.743 178.104,227.441 178.736 L 228.711 179.883 227.564 178.613 C 226.494 177.430,226.172 177.164,226.172 177.466 M168.345 181.767 C 167.155 182.664,165.749 183.711,165.220 184.093 C 164.578 184.557,164.521 184.666,165.048 184.420 C 166.039 183.958,170.703 180.539,170.703 180.274 C 170.703 179.988,170.702 179.989,168.345 181.767 M162.399 185.693 C 160.522 186.847,159.998 187.391,161.523 186.603 C 162.748 185.970,164.400 184.791,164.063 184.790 C 163.955 184.790,163.206 185.196,162.399 185.693 M237.500 185.722 C 237.500 185.830,238.027 186.190,238.672 186.523 C 239.316 186.857,239.844 187.042,239.844 186.934 C 239.844 186.827,239.316 186.466,238.672 186.133 C 238.027 185.800,237.500 185.615,237.500 185.722 M157.031 188.672 C 156.279 189.084,155.805 189.428,155.976 189.437 C 156.390 189.458,158.594 188.313,158.594 188.076 C 158.594 187.820,158.571 187.829,157.031 188.672 M153.516 190.234 C 152.764 190.646,152.324 190.983,152.539 190.983 C 152.754 190.983,153.545 190.646,154.297 190.234 C 155.049 189.823,155.488 189.486,155.273 189.486 C 155.059 189.486,154.268 189.823,153.516 190.234 M245.703 190.039 C 246.240 190.346,246.855 190.597,247.070 190.597 C 247.285 190.597,247.021 190.346,246.484 190.039 C 245.947 189.732,245.332 189.481,245.117 189.481 C 244.902 189.481,245.166 189.732,245.703 190.039 M144.531 193.555 C 143.779 193.844,143.428 194.081,143.750 194.081 C 144.072 194.081,144.951 193.844,145.703 193.555 C 146.455 193.265,146.807 193.028,146.484 193.028 C 146.162 193.028,145.283 193.265,144.531 193.555 M134.961 196.060 L 133.789 196.324 135.331 196.587 C 136.179 196.732,136.956 196.768,137.056 196.668 C 137.157 196.567,136.903 196.467,136.491 196.445 C 135.908 196.415,135.958 196.337,136.719 196.094 C 137.971 195.693,136.700 195.668,134.961 196.060 M263.086 196.094 C 263.832 196.415,263.834 196.431,263.118 196.457 C 262.707 196.472,262.459 196.573,262.568 196.682 C 262.677 196.791,263.365 196.758,264.098 196.608 C 265.380 196.346,265.393 196.326,264.453 196.059 C 263.054 195.661,262.134 195.685,263.086 196.094 M146.484 199.543 C 146.807 199.743,147.510 200.023,148.047 200.167 C 148.726 200.348,148.845 200.318,148.438 200.066 C 148.115 199.867,147.412 199.586,146.875 199.443 C 146.196 199.261,146.077 199.292,146.484 199.543 M160.742 205.752 C 160.957 205.957,161.836 206.520,162.695 207.002 C 163.555 207.485,163.906 207.588,163.477 207.230 C 162.604 206.505,160.129 205.167,160.742 205.752 M238.184 206.083 C 236.723 206.875,236.812 207.205,238.281 206.445 C 238.926 206.112,239.453 205.756,239.453 205.654 C 239.453 205.403,239.411 205.417,238.184 206.083 M231.836 210.386 L 230.664 211.393 231.934 210.553 C 232.632 210.090,233.203 209.637,233.203 209.544 C 233.203 209.251,233.038 209.353,231.836 210.386 M167.969 210.279 C 167.969 210.375,168.614 210.946,169.403 211.548 C 170.192 212.150,170.714 212.442,170.563 212.198 C 170.254 211.698,167.969 210.007,167.969 210.279 M176.563 217.773 C 178.379 219.600,179.953 221.094,180.061 221.094 C 180.168 221.094,178.770 219.600,176.953 217.773 C 175.136 215.947,173.562 214.453,173.455 214.453 C 173.347 214.453,174.746 215.947,176.563 217.773 M223.421 217.480 L 221.680 219.336 223.626 217.578 C 224.696 216.611,225.648 215.776,225.741 215.723 C 225.835 215.669,225.743 215.625,225.537 215.625 C 225.331 215.625,224.379 216.460,223.421 217.480 M219.333 222.024 C 217.384 224.230,215.244 227.010,216.291 225.977 C 217.272 225.008,221.884 219.531,221.719 219.531 C 221.618 219.531,220.544 220.653,219.333 222.024 M183.374 225.519 C 183.976 226.308,184.547 226.953,184.643 226.953 C 184.915 226.953,183.224 224.668,182.723 224.359 C 182.480 224.208,182.772 224.730,183.374 225.519 M214.145 228.809 C 212.307 231.544,212.017 232.031,212.224 232.031 C 212.313 232.031,213.204 230.801,214.204 229.297 C 215.204 227.793,215.939 226.563,215.838 226.563 C 215.737 226.563,214.975 227.573,214.145 228.809 M208.964 237.540 C 208.303 238.850,207.826 239.987,207.905 240.066 C 207.983 240.145,208.608 239.072,209.294 237.683 C 209.979 236.293,210.456 235.156,210.354 235.156 C 210.251 235.156,209.626 236.229,208.964 237.540 M199.609 264.039 C 199.609 264.456,199.785 264.906,200.000 265.039 C 200.222 265.176,200.391 264.848,200.391 264.281 C 200.391 263.731,200.215 263.281,200.000 263.281 C 199.785 263.281,199.609 263.622,199.609 264.039 " stroke="none" fill="#fbebbb" fill-rule="evenodd"></path><path id="path3" d="M198.969 79.879 C 196.578 80.885,195.000 84.174,194.378 89.453 L 194.171 91.211 194.561 89.648 C 194.776 88.789,195.205 86.977,195.513 85.621 C 197.159 78.393,202.601 78.140,204.437 85.206 C 204.736 86.360,205.829 92.036,206.864 97.818 C 207.899 103.600,208.809 108.143,208.886 107.914 C 209.033 107.472,205.340 86.798,204.669 84.306 C 203.831 81.192,201.026 79.014,198.969 79.879 M193.572 93.182 C 193.423 94.178,193.381 95.073,193.478 95.171 C 193.576 95.269,193.778 94.533,193.928 93.537 C 194.077 92.541,194.119 91.645,194.022 91.548 C 193.924 91.450,193.722 92.185,193.572 93.182 M191.260 106.299 C 185.426 139.644,182.150 148.973,171.937 161.328 C 160.105 175.642,147.109 181.467,109.961 189.105 C 104.590 190.209,99.540 191.444,98.739 191.849 C 95.053 193.712,95.215 198.951,99.015 200.768 C 100.257 201.362,126.333 207.084,130.469 207.671 C 133.702 208.129,127.405 206.675,114.858 204.065 C 97.548 200.465,96.484 200.011,96.484 196.232 C 96.484 192.439,97.242 192.109,113.774 188.701 C 133.281 184.679,140.757 182.594,148.733 178.949 C 170.924 168.812,182.925 152.186,188.452 123.925 C 190.433 113.795,193.420 96.470,193.265 96.005 C 193.191 95.785,192.289 100.417,191.260 106.299 M209.221 110.352 C 211.213 129.398,217.492 147.867,225.754 158.981 C 236.134 172.942,256.679 184.045,277.344 186.860 C 280.043 187.228,278.831 186.867,272.852 185.522 C 234.876 176.981,218.431 159.299,211.113 119.141 C 209.243 108.876,208.900 107.283,209.221 110.352 M197.098 136.551 C 196.955 137.124,196.912 137.668,197.004 137.760 C 197.096 137.852,197.289 137.459,197.433 136.886 C 197.577 136.314,197.619 135.770,197.527 135.678 C 197.435 135.586,197.242 135.979,197.098 136.551 M202.789 137.500 C 202.789 137.822,202.940 138.438,203.125 138.867 C 203.337 139.360,203.461 139.432,203.461 139.063 C 203.461 138.740,203.310 138.125,203.125 137.695 C 202.913 137.203,202.789 137.131,202.789 137.500 M206.668 149.023 C 206.668 149.238,206.920 149.854,207.227 150.391 C 207.534 150.928,207.785 151.191,207.785 150.977 C 207.785 150.762,207.534 150.146,207.227 149.609 C 206.920 149.072,206.668 148.809,206.668 149.023 M191.672 152.167 C 190.754 154.091,190.883 154.418,191.842 152.600 C 192.278 151.774,192.566 151.029,192.481 150.945 C 192.397 150.860,192.032 151.410,191.672 152.167 M208.203 152.485 C 208.203 152.909,210.534 157.422,210.753 157.422 C 210.861 157.422,210.398 156.323,209.725 154.980 C 208.449 152.435,208.203 152.032,208.203 152.485 M189.453 156.641 C 188.802 157.930,188.358 158.984,188.465 158.984 C 188.573 158.984,189.193 157.930,189.844 156.641 C 190.494 155.352,190.939 154.297,190.832 154.297 C 190.724 154.297,190.104 155.352,189.453 156.641 M187.199 160.678 C 186.776 161.395,186.122 162.494,185.747 163.120 L 185.064 164.258 185.872 163.281 C 186.795 162.165,188.422 159.375,188.150 159.375 C 188.050 159.375,187.622 159.961,187.199 160.678 M215.056 164.551 C 220.037 171.561,228.165 179.552,233.398 182.584 C 234.555 183.254,234.558 183.253,233.598 182.549 C 226.602 177.419,220.507 171.495,216.379 165.813 C 215.055 163.991,213.888 162.500,213.785 162.500 C 213.682 162.500,214.254 163.423,215.056 164.551 M182.408 167.676 C 179.239 171.670,176.510 174.484,172.764 177.622 C 168.736 180.995,167.129 182.652,170.605 179.847 C 176.024 175.476,185.119 166.016,183.902 166.016 C 183.804 166.016,183.132 166.763,182.408 167.676 M165.328 183.174 C 162.151 185.257,161.089 186.168,163.477 184.762 C 165.688 183.460,168.359 181.635,168.359 181.427 C 168.359 181.179,168.460 181.121,165.328 183.174 M235.352 183.796 C 235.781 184.146,236.484 184.605,236.914 184.816 L 237.695 185.199 236.914 184.563 C 236.484 184.213,235.781 183.755,235.352 183.544 L 234.570 183.160 235.352 183.796 M237.891 185.338 C 237.891 185.446,238.770 185.979,239.844 186.523 C 240.918 187.068,241.797 187.425,241.797 187.318 C 241.797 187.210,240.918 186.677,239.844 186.133 C 238.770 185.588,237.891 185.231,237.891 185.338 M160.059 186.355 C 159.253 186.780,158.594 187.215,158.594 187.322 C 158.594 187.429,159.297 187.157,160.156 186.719 C 161.016 186.280,161.719 185.837,161.719 185.734 C 161.719 185.479,161.716 185.480,160.059 186.355 M282.227 187.920 C 283.945 188.320,288.751 189.347,292.906 190.200 C 302.264 192.124,303.622 192.924,303.622 196.518 C 303.622 199.197,301.240 200.927,296.369 201.786 C 295.553 201.929,294.968 202.129,295.068 202.229 C 295.385 202.547,299.745 201.503,301.210 200.759 C 304.902 198.884,305.047 193.799,301.461 191.937 C 300.765 191.575,295.625 190.342,290.039 189.196 C 279.991 187.135,276.182 186.513,282.227 187.920 M244.531 188.867 C 245.068 189.174,245.684 189.425,245.898 189.425 C 246.113 189.425,245.850 189.174,245.313 188.867 C 244.775 188.560,244.160 188.309,243.945 188.309 C 243.730 188.309,243.994 188.560,244.531 188.867 M154.297 189.258 C 153.760 189.565,153.496 189.816,153.711 189.816 C 153.926 189.816,154.541 189.565,155.078 189.258 C 155.615 188.951,155.879 188.700,155.664 188.700 C 155.449 188.700,154.834 188.951,154.297 189.258 M247.266 190.039 C 247.803 190.346,248.418 190.597,248.633 190.597 C 248.848 190.597,248.584 190.346,248.047 190.039 C 247.510 189.732,246.895 189.481,246.680 189.481 C 246.465 189.481,246.729 189.732,247.266 190.039 M151.563 190.430 C 151.025 190.737,150.762 190.988,150.977 190.988 C 151.191 190.988,151.807 190.737,152.344 190.430 C 152.881 190.123,153.145 189.871,152.930 189.871 C 152.715 189.871,152.100 190.123,151.563 190.430 M148.120 191.673 C 147.194 192.001,146.505 192.338,146.589 192.422 C 146.767 192.601,150.391 191.411,150.391 191.174 C 150.391 190.930,149.946 191.027,148.120 191.673 M251.209 191.557 C 251.511 191.881,258.224 194.150,258.765 194.111 C 258.993 194.095,257.716 193.575,255.927 192.956 C 251.627 191.468,250.932 191.262,251.209 191.557 M143.164 193.359 C 142.672 193.571,142.599 193.695,142.969 193.695 C 143.291 193.695,143.906 193.544,144.336 193.359 C 144.828 193.148,144.901 193.024,144.531 193.024 C 144.209 193.024,143.594 193.175,143.164 193.359 M140.430 194.141 C 139.937 194.352,139.865 194.476,140.234 194.476 C 140.557 194.476,141.172 194.325,141.602 194.141 C 142.094 193.929,142.166 193.805,141.797 193.805 C 141.475 193.805,140.859 193.956,140.430 194.141 M137.500 194.922 C 136.715 195.173,136.677 195.237,137.305 195.246 C 137.734 195.252,138.438 195.107,138.867 194.922 C 139.863 194.494,138.836 194.494,137.500 194.922 M263.867 195.703 C 264.297 195.888,264.912 196.039,265.234 196.039 C 265.604 196.039,265.531 195.915,265.039 195.703 C 264.609 195.518,263.994 195.367,263.672 195.367 C 263.303 195.367,263.375 195.492,263.867 195.703 M137.305 197.656 C 137.734 197.841,138.438 197.987,138.867 197.980 C 139.495 197.971,139.457 197.908,138.672 197.656 C 137.336 197.229,136.309 197.229,137.305 197.656 M259.570 198.047 C 259.078 198.258,259.006 198.383,259.375 198.383 C 259.697 198.383,260.313 198.232,260.742 198.047 C 261.235 197.835,261.307 197.711,260.938 197.711 C 260.615 197.711,260.000 197.862,259.570 198.047 M140.430 198.438 C 140.859 198.622,141.475 198.773,141.797 198.773 C 142.166 198.773,142.094 198.649,141.602 198.438 C 141.172 198.253,140.557 198.102,140.234 198.102 C 139.865 198.102,139.937 198.226,140.430 198.438 M256.836 198.828 C 256.344 199.040,256.271 199.164,256.641 199.164 C 256.963 199.164,257.578 199.013,258.008 198.828 C 258.500 198.617,258.572 198.492,258.203 198.492 C 257.881 198.492,257.266 198.643,256.836 198.828 M143.164 199.219 C 143.594 199.403,144.209 199.554,144.531 199.554 C 144.901 199.554,144.828 199.430,144.336 199.219 C 143.906 199.034,143.291 198.883,142.969 198.883 C 142.599 198.883,142.672 199.007,143.164 199.219 M151.131 201.989 C 152.076 202.408,152.918 202.681,153.003 202.596 C 153.172 202.427,150.162 201.155,149.699 201.199 C 149.542 201.215,150.187 201.570,151.131 201.989 M246.680 202.531 C 245.605 203.037,244.902 203.454,245.117 203.459 C 245.332 203.464,246.387 203.054,247.461 202.548 C 248.535 202.042,249.238 201.624,249.023 201.619 C 248.809 201.614,247.754 202.024,246.680 202.531 M285.547 203.932 C 258.702 209.587,251.526 212.034,240.777 219.195 C 223.328 230.821,215.347 246.566,209.376 281.141 C 208.308 287.324,206.993 294.844,206.455 297.852 C 205.916 300.859,205.275 304.446,205.031 305.823 C 204.311 309.871,201.604 312.012,198.264 311.173 C 195.718 310.534,194.732 306.546,189.427 275.406 C 188.934 272.514,188.467 270.341,188.389 270.576 C 188.245 271.006,191.555 290.330,193.819 302.286 C 195.498 311.148,197.549 313.289,202.233 311.066 C 204.847 309.826,204.830 309.889,208.806 286.719 C 213.116 261.599,215.287 253.347,220.153 243.588 C 230.783 222.269,245.838 212.645,279.492 205.654 C 292.087 203.038,294.839 202.411,293.750 202.410 C 293.213 202.410,289.521 203.094,285.547 203.932 M155.078 203.711 C 156.045 204.229,157.012 204.652,157.227 204.652 C 157.441 204.652,156.826 204.229,155.859 203.711 C 154.893 203.193,153.926 202.770,153.711 202.770 C 153.496 202.770,154.111 203.193,155.078 203.711 M159.375 205.644 C 159.375 205.751,159.902 206.112,160.547 206.445 C 161.191 206.779,161.719 206.963,161.719 206.856 C 161.719 206.749,161.191 206.388,160.547 206.055 C 159.902 205.721,159.375 205.537,159.375 205.644 M239.355 206.083 C 237.895 206.875,237.984 207.205,239.453 206.445 C 240.098 206.112,240.625 205.756,240.625 205.654 C 240.625 205.403,240.583 205.417,239.355 206.083 M133.016 208.386 C 135.738 209.247,137.547 209.430,135.156 208.603 C 133.975 208.195,132.656 207.867,132.227 207.875 C 131.797 207.883,132.152 208.113,133.016 208.386 M142.061 211.061 C 166.761 219.966,180.188 235.912,186.852 264.258 C 187.610 267.480,188.241 269.754,188.256 269.309 C 188.446 263.312,181.226 243.939,175.745 235.743 C 167.898 224.008,149.948 211.349,138.607 209.553 C 137.891 209.439,139.445 210.118,142.061 211.061 M166.406 209.902 C 166.406 210.004,167.593 210.921,169.043 211.941 C 170.493 212.960,174.052 216.183,176.951 219.104 C 179.850 222.024,181.469 223.503,180.549 222.389 C 177.230 218.371,166.406 208.814,166.406 209.902 M228.700 213.506 L 226.758 215.294 228.809 213.641 C 230.648 212.157,231.092 211.719,230.751 211.719 C 230.691 211.719,229.769 212.523,228.700 213.506 M224.011 217.676 L 221.680 220.117 224.121 217.786 C 225.464 216.503,226.563 215.405,226.563 215.344 C 226.563 215.056,226.177 215.408,224.011 217.676 M219.571 222.529 C 217.583 224.759,214.243 229.297,214.589 229.297 C 214.691 229.297,215.559 228.198,216.517 226.855 C 217.476 225.513,219.089 223.491,220.103 222.363 C 221.118 221.235,221.857 220.313,221.747 220.313 C 221.637 220.313,220.658 221.310,219.571 222.529 M182.983 225.910 C 183.585 226.698,184.156 227.344,184.253 227.344 C 184.524 227.344,182.833 225.059,182.333 224.750 C 182.089 224.599,182.382 225.121,182.983 225.910 M186.420 230.859 C 186.737 231.396,187.565 232.847,188.262 234.082 C 188.958 235.317,189.611 236.328,189.712 236.328 C 189.990 236.328,187.460 231.829,186.598 230.790 L 185.845 229.883 186.420 230.859 M211.328 234.375 C 210.890 235.234,210.619 235.938,210.726 235.938 C 210.834 235.938,211.280 235.234,211.719 234.375 C 212.157 233.516,212.428 232.813,212.321 232.813 C 212.213 232.813,211.767 233.516,211.328 234.375 M209.160 238.320 C 208.605 239.416,208.216 240.378,208.296 240.458 C 208.376 240.538,208.913 239.641,209.490 238.466 C 210.067 237.290,210.455 236.328,210.354 236.328 C 210.252 236.328,209.715 237.225,209.160 238.320 M191.051 239.258 C 191.051 239.473,191.474 240.439,191.992 241.406 C 192.510 242.373,192.933 242.988,192.933 242.773 C 192.933 242.559,192.510 241.592,191.992 240.625 C 191.474 239.658,191.051 239.043,191.051 239.258 M206.879 243.403 C 206.305 244.726,205.900 245.874,205.978 245.952 C 206.057 246.031,206.589 245.011,207.161 243.685 C 207.733 242.359,208.139 241.212,208.062 241.135 C 207.986 241.059,207.453 242.079,206.879 243.403 M193.847 245.801 C 193.946 246.069,194.334 247.223,194.709 248.365 C 195.085 249.507,195.461 250.372,195.545 250.288 C 195.743 250.090,194.133 245.313,193.868 245.313 C 193.757 245.313,193.748 245.532,193.847 245.801 M195.763 251.172 C 195.763 251.494,195.999 252.373,196.289 253.125 C 196.579 253.877,196.816 254.229,196.816 253.906 C 196.816 253.584,196.579 252.705,196.289 251.953 C 195.999 251.201,195.763 250.850,195.763 251.172 M203.348 252.958 C 203.205 253.530,203.162 254.074,203.254 254.166 C 203.346 254.258,203.539 253.865,203.683 253.292 C 203.827 252.720,203.869 252.176,203.777 252.084 C 203.685 251.992,203.492 252.385,203.348 252.958 M196.930 255.078 C 196.930 255.400,197.081 256.016,197.266 256.445 C 197.477 256.938,197.601 257.010,197.601 256.641 C 197.601 256.318,197.450 255.703,197.266 255.273 C 197.054 254.781,196.930 254.709,196.930 255.078 M201.758 258.594 C 201.610 259.269,201.570 259.903,201.669 260.002 C 201.769 260.102,201.962 259.622,202.100 258.936 C 202.237 258.249,202.277 257.615,202.188 257.527 C 202.100 257.438,201.906 257.918,201.758 258.594 M198.515 261.133 C 198.515 261.563,198.656 262.354,198.828 262.891 C 199.076 263.664,199.141 263.705,199.141 263.086 C 199.141 262.656,199.000 261.865,198.828 261.328 C 198.580 260.555,198.515 260.514,198.515 261.133 " stroke="none" fill="#f5a406" fill-rule="evenodd"></path><path id="path4" d="M222.656 174.023 C 223.823 175.205,224.866 176.172,224.973 176.172 C 225.081 176.172,224.214 175.205,223.047 174.023 C 221.880 172.842,220.837 171.875,220.730 171.875 C 220.622 171.875,221.489 172.842,222.656 174.023 M166.797 225.903 C 166.797 225.971,167.368 226.542,168.066 227.173 L 169.336 228.320 168.189 227.051 C 167.119 225.867,166.797 225.602,166.797 225.903 M231.811 227.051 L 230.664 228.320 231.934 227.173 C 232.632 226.542,233.203 225.971,233.203 225.903 C 233.203 225.602,232.881 225.867,231.811 227.051 " stroke="none" fill="#f9c448" fill-rule="evenodd"></path></g></svg>